%TF.GenerationSoftware,KiCad,Pcbnew,(6.0.7-1)-1*%
%TF.CreationDate,2022-10-31T22:34:26+08:00*%
%TF.ProjectId,kamao,6b616d61-6f2e-46b6-9963-61645f706362,rev?*%
%TF.SameCoordinates,Original*%
%TF.FileFunction,Copper,L1,Top*%
%TF.FilePolarity,Positive*%
%FSLAX46Y46*%
G04 Gerber Fmt 4.6, Leading zero omitted, Abs format (unit mm)*
G04 Created by KiCad (PCBNEW (6.0.7-1)-1) date 2022-10-31 22:34:26*
%MOMM*%
%LPD*%
G01*
G04 APERTURE LIST*
G04 Aperture macros list*
%AMRoundRect*
0 Rectangle with rounded corners*
0 $1 Rounding radius*
0 $2 $3 $4 $5 $6 $7 $8 $9 X,Y pos of 4 corners*
0 Add a 4 corners polygon primitive as box body*
4,1,4,$2,$3,$4,$5,$6,$7,$8,$9,$2,$3,0*
0 Add four circle primitives for the rounded corners*
1,1,$1+$1,$2,$3*
1,1,$1+$1,$4,$5*
1,1,$1+$1,$6,$7*
1,1,$1+$1,$8,$9*
0 Add four rect primitives between the rounded corners*
20,1,$1+$1,$2,$3,$4,$5,0*
20,1,$1+$1,$4,$5,$6,$7,0*
20,1,$1+$1,$6,$7,$8,$9,0*
20,1,$1+$1,$8,$9,$2,$3,0*%
%AMRotRect*
0 Rectangle, with rotation*
0 The origin of the aperture is its center*
0 $1 length*
0 $2 width*
0 $3 Rotation angle, in degrees counterclockwise*
0 Add horizontal line*
21,1,$1,$2,0,0,$3*%
%AMFreePoly0*
4,1,50,0.004851,0.125700,0.009301,0.126658,0.029410,0.119120,0.057435,0.111610,0.063500,0.109985,0.069329,0.104156,0.076254,0.101560,0.089017,0.084468,0.109985,0.063500,0.112957,0.052407,0.119035,0.044268,0.120434,0.024505,0.127000,0.000000,0.123179,-0.014260,0.124085,-0.027055,0.115579,-0.042624,0.109985,-0.063500,0.097173,-0.076312,0.089802,-0.089803,-1.873000,-2.052606,
-1.873000,-6.950000,-1.876246,-6.972385,-1.875915,-6.977055,-1.877287,-6.979566,-1.878230,-6.986070,-1.895197,-7.012347,-1.910198,-7.039803,-3.260197,-8.389803,-3.289401,-8.411610,-3.359301,-8.426658,-3.426254,-8.401560,-3.469035,-8.344268,-3.474085,-8.272945,-3.439803,-8.210197,-2.127000,-6.897395,-2.127000,-2.000000,-2.123754,-1.977615,-2.124085,-1.972945,-2.122713,-1.970434,-2.121770,-1.963930,
-2.104806,-1.937658,-2.089803,-1.910197,-0.089803,0.089802,-0.065637,0.107848,-0.063500,0.109985,-0.062369,0.110288,-0.060599,0.111610,-0.044515,0.115072,0.000000,0.127000,0.004851,0.125700,0.004851,0.125700,$1*%
G04 Aperture macros list end*
%TA.AperFunction,ComponentPad*%
%ADD10O,1.800000X2.750000*%
%TD*%
%TA.AperFunction,ComponentPad*%
%ADD11C,1.397000*%
%TD*%
%TA.AperFunction,ComponentPad*%
%ADD12C,2.000000*%
%TD*%
%TA.AperFunction,ComponentPad*%
%ADD13R,0.900000X1.200000*%
%TD*%
%TA.AperFunction,SMDPad,CuDef*%
%ADD14FreePoly0,0.000000*%
%TD*%
%TA.AperFunction,ComponentPad*%
%ADD15RoundRect,0.250000X-0.750000X0.600000X-0.750000X-0.600000X0.750000X-0.600000X0.750000X0.600000X0*%
%TD*%
%TA.AperFunction,ComponentPad*%
%ADD16O,2.000000X1.700000*%
%TD*%
%TA.AperFunction,ComponentPad*%
%ADD17RotRect,0.900000X1.200000X340.000000*%
%TD*%
%TA.AperFunction,SMDPad,CuDef*%
%ADD18FreePoly0,340.000000*%
%TD*%
%TA.AperFunction,ComponentPad*%
%ADD19RotRect,0.900000X1.200000X350.000000*%
%TD*%
%TA.AperFunction,SMDPad,CuDef*%
%ADD20FreePoly0,350.000000*%
%TD*%
%TA.AperFunction,Conductor*%
%ADD21C,0.250000*%
%TD*%
G04 APERTURE END LIST*
D10*
%TO.P,U1,1,A2/0.02_H*%
%TO.N,unconnected-(U1-Pad1)*%
X-8620000Y387905000D03*
%TO.P,U1,2,A4/0.03_H*%
%TO.N,unconnected-(U1-Pad2)*%
X-6080000Y387905000D03*
%TO.P,U1,3,A10/0.28*%
%TO.N,unconnected-(U1-Pad3)*%
X-3540000Y387905000D03*
%TO.P,U1,4,A11/0.29*%
%TO.N,/Col1*%
X-1000000Y387905000D03*
%TO.P,U1,5,A8_SDA/0.04_H*%
%TO.N,/Col2*%
X1540000Y387905000D03*
%TO.P,U1,6,A9_SCL/0.05_H*%
%TO.N,/Col3*%
X4080000Y387905000D03*
%TO.P,U1,7,B8_TX/1.11*%
%TO.N,/Col4*%
X6620000Y387905000D03*
%TO.P,U1,8,B9_RX/1.12*%
%TO.N,/Row4*%
X6620000Y404095000D03*
%TO.P,U1,9,A7_SCK/1.13*%
%TO.N,/Row3*%
X4080000Y404095000D03*
%TO.P,U1,10,A5_MISO/1.14*%
%TO.N,/Row2*%
X1540000Y404095000D03*
%TO.P,U1,11,A6_MOSI/1.15*%
%TO.N,/Row1*%
X-1000000Y404095000D03*
%TO.P,U1,12,3V3*%
%TO.N,unconnected-(U1-Pad12)*%
X-3540000Y404095000D03*
%TO.P,U1,13,GND*%
%TO.N,unconnected-(U1-Pad13)*%
X-6080000Y404095000D03*
%TO.P,U1,14,5V*%
%TO.N,unconnected-(U1-Pad14)*%
X-8620000Y404095000D03*
D11*
%TO.P,U1,15,A31_SWDIO*%
%TO.N,unconnected-(U1-Pad15)*%
X-9572000Y394730000D03*
%TO.P,U1,16,A30_SWCLK*%
%TO.N,unconnected-(U1-Pad16)*%
X-9572000Y397270000D03*
%TO.P,U1,17,RESET*%
%TO.N,unconnected-(U1-Pad17)*%
X-7032000Y394730000D03*
%TO.P,U1,18,GND*%
%TO.N,unconnected-(U1-Pad18)*%
X-7032000Y397270000D03*
%TO.P,U1,19,BAT*%
%TO.N,Net-(BT1-Pad1)*%
X-1300000Y400400000D03*
X-1317000Y391555000D03*
%TO.P,U1,20,GND*%
%TO.N,Net-(BT1-Pad2)*%
X-3222000Y391555000D03*
X-3205000Y400400000D03*
%TO.P,U1,21,NFC1/0.09_H*%
%TO.N,unconnected-(U1-Pad21)*%
X8208000Y399810000D03*
%TO.P,U1,22,NFC2/0.10_H*%
%TO.N,unconnected-(U1-Pad22)*%
X8208000Y401715000D03*
%TD*%
D12*
%TO.P,K2,1*%
%TO.N,/Row2*%
X-1500000Y439900000D03*
D13*
%TO.P,K2,2*%
%TO.N,/Col1*%
X-3150000Y429500000D03*
D12*
%TO.P,K2,3*%
%TO.N,N/C*%
X3500000Y437800000D03*
X-6500000Y437800000D03*
D14*
X3500000Y437800000D03*
D13*
X150000Y429500000D03*
%TD*%
D12*
%TO.P,K8,1*%
%TO.N,/Row4*%
X72500000Y420400000D03*
D13*
%TO.P,K8,2*%
%TO.N,/Col2*%
X70850000Y410000000D03*
%TO.P,K8,3*%
%TO.N,N/C*%
X74150000Y410000000D03*
D12*
X67500000Y418300000D03*
X77500000Y418300000D03*
D14*
X77500000Y418300000D03*
%TD*%
D12*
%TO.P,K4,1*%
%TO.N,/Row4*%
X17000000Y440900000D03*
D13*
%TO.P,K4,2*%
%TO.N,/Col1*%
X15350000Y430500000D03*
D12*
%TO.P,K4,3*%
%TO.N,N/C*%
X22000000Y438800000D03*
D14*
X22000000Y438800000D03*
D13*
X18650000Y430500000D03*
D12*
X12000000Y438800000D03*
%TD*%
D15*
%TO.P,BT1,1,+*%
%TO.N,Net-(BT1-Pad1)*%
X14400000Y393300000D03*
D16*
%TO.P,BT1,2,-*%
%TO.N,Net-(BT1-Pad2)*%
X14400000Y390800000D03*
%TD*%
D12*
%TO.P,K6,1*%
%TO.N,/Row2*%
X72500000Y437900000D03*
D13*
%TO.P,K6,2*%
%TO.N,/Col2*%
X70850000Y427500000D03*
%TO.P,K6,3*%
%TO.N,N/C*%
X74150000Y427500000D03*
D12*
X77500000Y435800000D03*
D14*
X77500000Y435800000D03*
D12*
X67500000Y435800000D03*
%TD*%
%TO.P,K3,1*%
%TO.N,/Row3*%
X-1500000Y422400000D03*
D13*
%TO.P,K3,2*%
%TO.N,/Col1*%
X-3150000Y412000000D03*
D14*
%TO.P,K3,3*%
%TO.N,N/C*%
X3500000Y420300000D03*
D12*
X3500000Y420300000D03*
D13*
X150000Y412000000D03*
D12*
X-6500000Y420300000D03*
%TD*%
%TO.P,K12,1*%
%TO.N,/Row4*%
X17000000Y423400000D03*
D13*
%TO.P,K12,2*%
%TO.N,/Col3*%
X15350000Y413000000D03*
D12*
%TO.P,K12,3*%
%TO.N,N/C*%
X22000000Y421300000D03*
D13*
X18650000Y413000000D03*
D12*
X12000000Y421300000D03*
D14*
X22000000Y421300000D03*
%TD*%
D12*
%TO.P,K7,1*%
%TO.N,/Row3*%
X79557009Y396072803D03*
D17*
%TO.P,K7,2*%
%TO.N,/Col2*%
X74449507Y386864333D03*
D12*
%TO.P,K7,3*%
%TO.N,N/C*%
X74140304Y395809549D03*
D17*
X77550493Y385735667D03*
D12*
X83537230Y392389348D03*
D18*
X83537230Y392389348D03*
%TD*%
D12*
%TO.P,K15,1*%
%TO.N,/Row3*%
X35500000Y425400000D03*
D13*
%TO.P,K15,2*%
%TO.N,/Col4*%
X33850000Y415000000D03*
D14*
%TO.P,K15,3*%
%TO.N,N/C*%
X40500000Y423300000D03*
D12*
X30500000Y423300000D03*
D13*
X37150000Y415000000D03*
D12*
X40500000Y423300000D03*
%TD*%
%TO.P,K16,1*%
%TO.N,/Row4*%
X54000000Y422400000D03*
D13*
%TO.P,K16,2*%
%TO.N,/Col4*%
X52350000Y412000000D03*
D12*
%TO.P,K16,3*%
%TO.N,N/C*%
X59000000Y420300000D03*
D13*
X55650000Y412000000D03*
D14*
X59000000Y420300000D03*
D12*
X49000000Y420300000D03*
%TD*%
%TO.P,K9,1*%
%TO.N,/Row1*%
X35500000Y460400000D03*
D13*
%TO.P,K9,2*%
%TO.N,/Col3*%
X33850000Y450000000D03*
D12*
%TO.P,K9,3*%
%TO.N,N/C*%
X30500000Y458300000D03*
D14*
X40500000Y458300000D03*
D13*
X37150000Y450000000D03*
D12*
X40500000Y458300000D03*
%TD*%
%TO.P,K14,1*%
%TO.N,/Row2*%
X54000000Y439900000D03*
D13*
%TO.P,K14,2*%
%TO.N,/Col4*%
X52350000Y429500000D03*
D14*
%TO.P,K14,3*%
%TO.N,N/C*%
X59000000Y437800000D03*
D12*
X49000000Y437800000D03*
X59000000Y437800000D03*
D13*
X55650000Y429500000D03*
%TD*%
D12*
%TO.P,K11,1*%
%TO.N,/Row3*%
X59524525Y401610366D03*
D19*
%TO.P,K11,2*%
%TO.N,/Col3*%
X56093651Y391654884D03*
D12*
%TO.P,K11,3*%
%TO.N,N/C*%
X64083903Y398674028D03*
D19*
X59343517Y391081846D03*
D12*
X54235825Y400410510D03*
D20*
X64083903Y398674028D03*
%TD*%
D12*
%TO.P,K10,1*%
%TO.N,/Row2*%
X35500000Y442900000D03*
D13*
%TO.P,K10,2*%
%TO.N,/Col3*%
X33850000Y432500000D03*
D14*
%TO.P,K10,3*%
%TO.N,N/C*%
X40500000Y440800000D03*
D12*
X40500000Y440800000D03*
X30500000Y440800000D03*
D13*
X37150000Y432500000D03*
%TD*%
D12*
%TO.P,K5,1*%
%TO.N,/Row1*%
X72500000Y455400000D03*
D13*
%TO.P,K5,2*%
%TO.N,/Col2*%
X70850000Y445000000D03*
%TO.P,K5,3*%
%TO.N,N/C*%
X74150000Y445000000D03*
D14*
X77500000Y453300000D03*
D12*
X77500000Y453300000D03*
X67500000Y453300000D03*
%TD*%
%TO.P,K13,1*%
%TO.N,/Row1*%
X54000000Y457400000D03*
D13*
%TO.P,K13,2*%
%TO.N,/Col4*%
X52350000Y447000000D03*
D12*
%TO.P,K13,3*%
%TO.N,N/C*%
X59000000Y455300000D03*
X49000000Y455300000D03*
D14*
X59000000Y455300000D03*
D13*
X55650000Y447000000D03*
%TD*%
D12*
%TO.P,K1,1*%
%TO.N,/Row1*%
X17000000Y458400000D03*
D13*
%TO.P,K1,2*%
%TO.N,/Col1*%
X15350000Y448000000D03*
D12*
%TO.P,K1,3*%
%TO.N,N/C*%
X22000000Y456300000D03*
D13*
X18650000Y448000000D03*
D12*
X12000000Y456300000D03*
D14*
X22000000Y456300000D03*
%TD*%
D21*
%TO.N,/Col1*%
X-293500Y389086500D02*
X-293500Y391906500D01*
X-200000Y392000000D02*
X-433278Y392233278D01*
X300000Y400500000D02*
X300000Y407000000D01*
X-293500Y391906500D02*
X-200000Y392000000D01*
X-433278Y392233278D02*
X-433278Y399766722D01*
X-433278Y399766722D02*
X300000Y400500000D01*
X300000Y407000000D02*
X-3150000Y410450000D01*
X-3150000Y410450000D02*
X-3150000Y412000000D01*
X15350000Y430500000D02*
X3000000Y430500000D01*
X-3150000Y429500000D02*
X-3575001Y429074999D01*
X-293500Y389086500D02*
X-1000000Y388380000D01*
X-3575001Y429074999D02*
X-3575001Y412706013D01*
X-500000Y427000000D02*
X-650000Y427000000D01*
X-293500Y391993500D02*
X-293500Y389086500D01*
X-650000Y427000000D02*
X-3150000Y429500000D01*
X15350000Y448000000D02*
X14924999Y447574999D01*
X3000000Y430500000D02*
X-500000Y427000000D01*
X14924999Y447574999D02*
X14924999Y431206013D01*
%TO.N,/Col2*%
X70850000Y445000000D02*
X70424999Y444574999D01*
X70424999Y427074999D02*
X70424999Y410706013D01*
X1540000Y386460000D02*
X2500000Y385500000D01*
X1540000Y388380000D02*
X1540000Y386460000D01*
X70850000Y410000000D02*
X70850000Y390463840D01*
X70850000Y390463840D02*
X74013840Y387300000D01*
X73085174Y385500000D02*
X74449507Y386864333D01*
X2500000Y385500000D02*
X73085174Y385500000D01*
X70850000Y427500000D02*
X70424999Y427074999D01*
X70424999Y444574999D02*
X70424999Y428206013D01*
%TO.N,/Col3*%
X4550000Y385950000D02*
X4080000Y386420000D01*
X50450000Y385950000D02*
X4550000Y385950000D01*
X54393651Y391654884D02*
X56093651Y391654884D01*
X22000000Y410000000D02*
X18000000Y410000000D01*
X15350000Y413000000D02*
X15350000Y405350000D01*
X4080000Y386420000D02*
X4080000Y388380000D01*
X4080000Y394080000D02*
X4080000Y388380000D01*
X54093651Y389593651D02*
X50450000Y385950000D01*
X24000000Y422650000D02*
X24000000Y412000000D01*
X33850000Y450000000D02*
X33424999Y449574999D01*
X54093651Y391354884D02*
X54093651Y389593651D01*
X18000000Y410000000D02*
X15350000Y412650000D01*
X15350000Y412650000D02*
X15350000Y413000000D01*
X33424999Y449574999D02*
X33424999Y433206013D01*
X15350000Y405350000D02*
X4080000Y394080000D01*
X33850000Y432500000D02*
X24000000Y422650000D01*
X54093651Y391354884D02*
X54393651Y391654884D01*
X24000000Y412000000D02*
X22000000Y410000000D01*
%TO.N,/Col4*%
X7230000Y388380000D02*
X33850000Y415000000D01*
X52350000Y440850000D02*
X51000000Y439500000D01*
X6620000Y388380000D02*
X7230000Y388380000D01*
X33850000Y415000000D02*
X36850000Y412000000D01*
X52350000Y429500000D02*
X51924999Y429074999D01*
X36850000Y412000000D02*
X52350000Y412000000D01*
X51000000Y439500000D02*
X51000000Y430850000D01*
X51924999Y429074999D02*
X51924999Y412706013D01*
X52350000Y447000000D02*
X52350000Y440850000D01*
X51000000Y430850000D02*
X52350000Y429500000D01*
%TD*%
M02*
