%TF.GenerationSoftware,KiCad,Pcbnew,(6.0.7-1)-1*%
%TF.CreationDate,2022-10-31T22:34:26+08:00*%
%TF.ProjectId,kamao,6b616d61-6f2e-46b6-9963-61645f706362,rev?*%
%TF.SameCoordinates,Original*%
%TF.FileFunction,Legend,Top*%
%TF.FilePolarity,Positive*%
%FSLAX46Y46*%
G04 Gerber Fmt 4.6, Leading zero omitted, Abs format (unit mm)*
G04 Created by KiCad (PCBNEW (6.0.7-1)-1) date 2022-10-31 22:34:26*
%MOMM*%
%LPD*%
G01*
G04 APERTURE LIST*
%ADD10C,0.150000*%
%ADD11C,0.120000*%
G04 APERTURE END LIST*
D10*
X59385714Y383552619D02*
X59385714Y384552619D01*
X59957142Y383552619D02*
X59528571Y384124047D01*
X59957142Y384552619D02*
X59385714Y383981190D01*
X60338095Y383838333D02*
X60814285Y383838333D01*
X60242857Y383552619D02*
X60576190Y384552619D01*
X60909523Y383552619D01*
X61242857Y383552619D02*
X61242857Y384552619D01*
X61576190Y383838333D01*
X61909523Y384552619D01*
X61909523Y383552619D01*
X62338095Y383838333D02*
X62814285Y383838333D01*
X62242857Y383552619D02*
X62576190Y384552619D01*
X62909523Y383552619D01*
X63433333Y384552619D02*
X63623809Y384552619D01*
X63719047Y384505000D01*
X63814285Y384409761D01*
X63861904Y384219285D01*
X63861904Y383885952D01*
X63814285Y383695476D01*
X63719047Y383600238D01*
X63623809Y383552619D01*
X63433333Y383552619D01*
X63338095Y383600238D01*
X63242857Y383695476D01*
X63195238Y383885952D01*
X63195238Y384219285D01*
X63242857Y384409761D01*
X63338095Y384505000D01*
X63433333Y384552619D01*
X58076190Y382609285D02*
X57314285Y382323571D01*
X58076190Y382037857D01*
X58552380Y382609285D02*
X58552380Y381752142D01*
X58504761Y381656904D01*
X58409523Y381609285D01*
X58361904Y381609285D01*
X58552380Y382942619D02*
X58504761Y382895000D01*
X58552380Y382847380D01*
X58600000Y382895000D01*
X58552380Y382942619D01*
X58552380Y382847380D01*
X59457142Y381942619D02*
X59457142Y382466428D01*
X59409523Y382561666D01*
X59314285Y382609285D01*
X59123809Y382609285D01*
X59028571Y382561666D01*
X59457142Y381990238D02*
X59361904Y381942619D01*
X59123809Y381942619D01*
X59028571Y381990238D01*
X58980952Y382085476D01*
X58980952Y382180714D01*
X59028571Y382275952D01*
X59123809Y382323571D01*
X59361904Y382323571D01*
X59457142Y382371190D01*
X59933333Y381942619D02*
X59933333Y382609285D01*
X59933333Y382514047D02*
X59980952Y382561666D01*
X60076190Y382609285D01*
X60219047Y382609285D01*
X60314285Y382561666D01*
X60361904Y382466428D01*
X60361904Y381942619D01*
X60361904Y382466428D02*
X60409523Y382561666D01*
X60504761Y382609285D01*
X60647619Y382609285D01*
X60742857Y382561666D01*
X60790476Y382466428D01*
X60790476Y381942619D01*
X61266666Y381942619D02*
X61266666Y382609285D01*
X61266666Y382514047D02*
X61314285Y382561666D01*
X61409523Y382609285D01*
X61552380Y382609285D01*
X61647619Y382561666D01*
X61695238Y382466428D01*
X61695238Y381942619D01*
X61695238Y382466428D02*
X61742857Y382561666D01*
X61838095Y382609285D01*
X61980952Y382609285D01*
X62076190Y382561666D01*
X62123809Y382466428D01*
X62123809Y381942619D01*
X62980952Y381990238D02*
X62885714Y381942619D01*
X62695238Y381942619D01*
X62600000Y381990238D01*
X62552380Y382085476D01*
X62552380Y382466428D01*
X62600000Y382561666D01*
X62695238Y382609285D01*
X62885714Y382609285D01*
X62980952Y382561666D01*
X63028571Y382466428D01*
X63028571Y382371190D01*
X62552380Y382275952D01*
X63457142Y381942619D02*
X63457142Y382609285D01*
X63457142Y382418809D02*
X63504761Y382514047D01*
X63552380Y382561666D01*
X63647619Y382609285D01*
X63742857Y382609285D01*
X64790476Y382990238D02*
X63933333Y381704523D01*
X65123809Y382609285D02*
X65885714Y382323571D01*
X65123809Y382037857D01*
%TO.C,BT1*%
X17128571Y391264285D02*
X17176190Y391407142D01*
X17223809Y391454761D01*
X17319047Y391502380D01*
X17461904Y391502380D01*
X17557142Y391454761D01*
X17604761Y391407142D01*
X17652380Y391311904D01*
X17652380Y390930952D01*
X16652380Y390930952D01*
X16652380Y391264285D01*
X16700000Y391359523D01*
X16747619Y391407142D01*
X16842857Y391454761D01*
X16938095Y391454761D01*
X17033333Y391407142D01*
X17080952Y391359523D01*
X17128571Y391264285D01*
X17128571Y390930952D01*
X16652380Y391788095D02*
X16652380Y392359523D01*
X17652380Y392073809D02*
X16652380Y392073809D01*
X17652380Y393216666D02*
X17652380Y392645238D01*
X17652380Y392930952D02*
X16652380Y392930952D01*
X16795238Y392835714D01*
X16890476Y392740476D01*
X16938095Y392645238D01*
D11*
%TO.C,K2*%
X-3750000Y428500000D02*
X150000Y428500000D01*
X-3750000Y430500000D02*
X150000Y430500000D01*
X-3750000Y430500000D02*
X-3750000Y428500000D01*
%TO.C,K8*%
X70250000Y411000000D02*
X70250000Y409000000D01*
X70250000Y411000000D02*
X74150000Y411000000D01*
X70250000Y409000000D02*
X74150000Y409000000D01*
%TO.C,K4*%
X14750000Y429500000D02*
X18650000Y429500000D01*
X14750000Y431500000D02*
X18650000Y431500000D01*
X14750000Y431500000D02*
X14750000Y429500000D01*
%TO.C,BT1*%
X12090000Y395910000D02*
X12090000Y388190000D01*
X13590000Y388190000D02*
X13590000Y389190000D01*
X16110000Y395910000D02*
X12090000Y395910000D01*
X13590000Y389190000D02*
X12090000Y389190000D01*
X12090000Y388190000D02*
X16110000Y388190000D01*
X14400000Y388690000D02*
X14400000Y388190000D01*
X15610000Y395410000D02*
X15610000Y388690000D01*
X14290000Y396210000D02*
X11790000Y396210000D01*
X15610000Y388690000D02*
X14400000Y388690000D01*
X11790000Y396210000D02*
X11790000Y393710000D01*
X16110000Y388190000D02*
X16110000Y395910000D01*
X14400000Y395910000D02*
X14400000Y395410000D01*
X13590000Y395910000D02*
X13590000Y394910000D01*
X13590000Y394910000D02*
X12090000Y394910000D01*
X14400000Y395410000D02*
X15610000Y395410000D01*
%TO.C,K6*%
X70250000Y428500000D02*
X70250000Y426500000D01*
X70250000Y428500000D02*
X74150000Y428500000D01*
X70250000Y426500000D02*
X74150000Y426500000D01*
%TO.C,K3*%
X-3750000Y413000000D02*
X-3750000Y411000000D01*
X-3750000Y413000000D02*
X150000Y413000000D01*
X-3750000Y411000000D02*
X150000Y411000000D01*
%TO.C,K12*%
X14750000Y414000000D02*
X14750000Y412000000D01*
X14750000Y414000000D02*
X18650000Y414000000D01*
X14750000Y412000000D02*
X18650000Y412000000D01*
%TO.C,K7*%
X73543671Y386129853D02*
X77208473Y384795974D01*
X74227712Y388009238D02*
X73543671Y386129853D01*
X74227712Y388009238D02*
X77892513Y386675359D01*
%TO.C,K15*%
X33250000Y416000000D02*
X33250000Y414000000D01*
X33250000Y416000000D02*
X37150000Y416000000D01*
X33250000Y414000000D02*
X37150000Y414000000D01*
%TO.C,K16*%
X51750000Y411000000D02*
X55650000Y411000000D01*
X51750000Y413000000D02*
X55650000Y413000000D01*
X51750000Y413000000D02*
X51750000Y411000000D01*
%TO.C,K9*%
X33250000Y449000000D02*
X37150000Y449000000D01*
X33250000Y451000000D02*
X37150000Y451000000D01*
X33250000Y451000000D02*
X33250000Y449000000D01*
%TO.C,K14*%
X51750000Y430500000D02*
X51750000Y428500000D01*
X51750000Y428500000D02*
X55650000Y428500000D01*
X51750000Y430500000D02*
X55650000Y430500000D01*
%TO.C,K11*%
X55676415Y392743881D02*
X59517165Y392066653D01*
X55676415Y392743881D02*
X55329118Y390774266D01*
X55329118Y390774266D02*
X59169869Y390097038D01*
%TO.C,K10*%
X33250000Y433500000D02*
X33250000Y431500000D01*
X33250000Y433500000D02*
X37150000Y433500000D01*
X33250000Y431500000D02*
X37150000Y431500000D01*
%TO.C,K5*%
X70250000Y446000000D02*
X74150000Y446000000D01*
X70250000Y446000000D02*
X70250000Y444000000D01*
X70250000Y444000000D02*
X74150000Y444000000D01*
%TO.C,K13*%
X51750000Y446000000D02*
X55650000Y446000000D01*
X51750000Y448000000D02*
X55650000Y448000000D01*
X51750000Y448000000D02*
X51750000Y446000000D01*
%TO.C,K1*%
X14750000Y447000000D02*
X18650000Y447000000D01*
X14750000Y449000000D02*
X18650000Y449000000D01*
X14750000Y449000000D02*
X14750000Y447000000D01*
%TD*%
M02*
