%TF.GenerationSoftware,KiCad,Pcbnew,(6.0.7-1)-1*%
%TF.CreationDate,2022-10-31T22:34:20+08:00*%
%TF.ProjectId,kamao,6b616d61-6f2e-46b6-9963-61645f706362,rev?*%
%TF.SameCoordinates,Original*%
%TF.FileFunction,Drillmap*%
%TF.FilePolarity,Positive*%
%FSLAX45Y45*%
G04 Gerber Fmt 4.5, Leading zero omitted, Abs format (unit mm)*
G04 Created by KiCad (PCBNEW (6.0.7-1)-1) date 2022-10-31 22:34:20*
%MOMM*%
%LPD*%
G01*
G04 APERTURE LIST*
%ADD10C,0.100000*%
%ADD11C,0.200000*%
%ADD12C,0.170000*%
%ADD13C,0.340000*%
G04 APERTURE END LIST*
D10*
X330278Y39600000D02*
G75*
G03*
X330278Y39600000I-180278J0D01*
G01*
X4610000Y46140000D02*
X6290000Y46140000D01*
X6509882Y45870179D01*
X8189882Y45860179D01*
X8190000Y40060000D01*
X8870000Y39610000D01*
X8900000Y39490000D01*
X8310000Y37920000D01*
X-1080000Y38470000D01*
X-1080000Y44340000D01*
X800000Y46160000D01*
X2530000Y46170000D01*
X2660000Y46370000D01*
X4410000Y46370000D01*
X4610000Y46140000D01*
D11*
D12*
X-785000Y43485000D02*
X-615000Y43315000D01*
X-615000Y43485000D02*
X-785000Y43315000D01*
X-785000Y41735000D02*
X-615000Y41565000D01*
X-615000Y41735000D02*
X-785000Y41565000D01*
X315000Y43485000D02*
X485000Y43315000D01*
X485000Y43485000D02*
X315000Y43315000D01*
X315000Y41735000D02*
X485000Y41565000D01*
X485000Y41735000D02*
X315000Y41565000D01*
X1065000Y45335000D02*
X1235000Y45165000D01*
X1235000Y45335000D02*
X1065000Y45165000D01*
X1065000Y43585000D02*
X1235000Y43415000D01*
X1235000Y43585000D02*
X1065000Y43415000D01*
X1065000Y41835000D02*
X1235000Y41665000D01*
X1235000Y41835000D02*
X1065000Y41665000D01*
X2165000Y45335000D02*
X2335000Y45165000D01*
X2335000Y45335000D02*
X2165000Y45165000D01*
X2165000Y43585000D02*
X2335000Y43415000D01*
X2335000Y43585000D02*
X2165000Y43415000D01*
X2165000Y41835000D02*
X2335000Y41665000D01*
X2335000Y41835000D02*
X2165000Y41665000D01*
X2915000Y45535000D02*
X3085000Y45365000D01*
X3085000Y45535000D02*
X2915000Y45365000D01*
X2915000Y43785000D02*
X3085000Y43615000D01*
X3085000Y43785000D02*
X2915000Y43615000D01*
X2915000Y42035000D02*
X3085000Y41865000D01*
X3085000Y42035000D02*
X2915000Y41865000D01*
X4015000Y45535000D02*
X4185000Y45365000D01*
X4185000Y45535000D02*
X4015000Y45365000D01*
X4015000Y43785000D02*
X4185000Y43615000D01*
X4185000Y43785000D02*
X4015000Y43615000D01*
X4015000Y42035000D02*
X4185000Y41865000D01*
X4185000Y42035000D02*
X4015000Y41865000D01*
X4765000Y45235000D02*
X4935000Y45065000D01*
X4935000Y45235000D02*
X4765000Y45065000D01*
X4765000Y43485000D02*
X4935000Y43315000D01*
X4935000Y43485000D02*
X4765000Y43315000D01*
X4765000Y41735000D02*
X4935000Y41565000D01*
X4935000Y41735000D02*
X4765000Y41565000D01*
X5223356Y39760507D02*
X5393356Y39590507D01*
X5393356Y39760507D02*
X5223356Y39590507D01*
X5865000Y45235000D02*
X6035000Y45065000D01*
X6035000Y45235000D02*
X5865000Y45065000D01*
X5865000Y43485000D02*
X6035000Y43315000D01*
X6035000Y43485000D02*
X5865000Y43315000D01*
X5865000Y41735000D02*
X6035000Y41565000D01*
X6035000Y41735000D02*
X5865000Y41565000D01*
X6306644Y39569494D02*
X6476644Y39399494D01*
X6476644Y39569494D02*
X6306644Y39399494D01*
X6615000Y45035000D02*
X6785000Y44865000D01*
X6785000Y45035000D02*
X6615000Y44865000D01*
X6615000Y43285000D02*
X6785000Y43115000D01*
X6785000Y43285000D02*
X6615000Y43115000D01*
X6615000Y41535000D02*
X6785000Y41365000D01*
X6785000Y41535000D02*
X6615000Y41365000D01*
X7152078Y39325973D02*
X7322078Y39155973D01*
X7322078Y39325973D02*
X7152078Y39155973D01*
X7715000Y45035000D02*
X7885000Y44865000D01*
X7885000Y45035000D02*
X7715000Y44865000D01*
X7715000Y43285000D02*
X7885000Y43115000D01*
X7885000Y43285000D02*
X7715000Y43115000D01*
X7715000Y41535000D02*
X7885000Y41365000D01*
X7885000Y41535000D02*
X7715000Y41365000D01*
X8185740Y38949751D02*
X8355740Y38779751D01*
X8355740Y38949751D02*
X8185740Y38779751D01*
D13*
X20000Y43400000D02*
G75*
G03*
X20000Y43400000I-170000J0D01*
G01*
X20000Y41650000D02*
G75*
G03*
X20000Y41650000I-170000J0D01*
G01*
X1870000Y45250000D02*
G75*
G03*
X1870000Y45250000I-170000J0D01*
G01*
X1870000Y43500000D02*
G75*
G03*
X1870000Y43500000I-170000J0D01*
G01*
X1870000Y41750000D02*
G75*
G03*
X1870000Y41750000I-170000J0D01*
G01*
X3720000Y45450000D02*
G75*
G03*
X3720000Y45450000I-170000J0D01*
G01*
X3720000Y43700000D02*
G75*
G03*
X3720000Y43700000I-170000J0D01*
G01*
X3720000Y41950000D02*
G75*
G03*
X3720000Y41950000I-170000J0D01*
G01*
X5570000Y45150000D02*
G75*
G03*
X5570000Y45150000I-170000J0D01*
G01*
X5570000Y43400000D02*
G75*
G03*
X5570000Y43400000I-170000J0D01*
G01*
X5570000Y41650000D02*
G75*
G03*
X5570000Y41650000I-170000J0D01*
G01*
X6020000Y39580000D02*
G75*
G03*
X6020000Y39580000I-170000J0D01*
G01*
X7420000Y44950000D02*
G75*
G03*
X7420000Y44950000I-170000J0D01*
G01*
X7420000Y43200000D02*
G75*
G03*
X7420000Y43200000I-170000J0D01*
G01*
X7420000Y41450000D02*
G75*
G03*
X7420000Y41450000I-170000J0D01*
G01*
X7923909Y39052862D02*
G75*
G03*
X7923909Y39052862I-170000J0D01*
G01*
D11*
X-827381Y37604524D02*
X-827381Y37804524D01*
X-779762Y37804524D01*
X-751190Y37795000D01*
X-732143Y37775952D01*
X-722619Y37756905D01*
X-713095Y37718810D01*
X-713095Y37690238D01*
X-722619Y37652143D01*
X-732143Y37633095D01*
X-751190Y37614048D01*
X-779762Y37604524D01*
X-827381Y37604524D01*
X-627381Y37604524D02*
X-627381Y37737857D01*
X-627381Y37699762D02*
X-617857Y37718810D01*
X-608333Y37728333D01*
X-589286Y37737857D01*
X-570238Y37737857D01*
X-503571Y37604524D02*
X-503571Y37737857D01*
X-503571Y37804524D02*
X-513095Y37795000D01*
X-503571Y37785476D01*
X-494048Y37795000D01*
X-503571Y37804524D01*
X-503571Y37785476D01*
X-379762Y37604524D02*
X-398809Y37614048D01*
X-408333Y37633095D01*
X-408333Y37804524D01*
X-275000Y37604524D02*
X-294048Y37614048D01*
X-303571Y37633095D01*
X-303571Y37804524D01*
X-46428Y37604524D02*
X-46428Y37804524D01*
X20238Y37661667D01*
X86905Y37804524D01*
X86905Y37604524D01*
X267857Y37604524D02*
X267857Y37709286D01*
X258333Y37728333D01*
X239286Y37737857D01*
X201190Y37737857D01*
X182143Y37728333D01*
X267857Y37614048D02*
X248809Y37604524D01*
X201190Y37604524D01*
X182143Y37614048D01*
X172619Y37633095D01*
X172619Y37652143D01*
X182143Y37671190D01*
X201190Y37680714D01*
X248809Y37680714D01*
X267857Y37690238D01*
X363095Y37737857D02*
X363095Y37537857D01*
X363095Y37728333D02*
X382143Y37737857D01*
X420238Y37737857D01*
X439286Y37728333D01*
X448809Y37718810D01*
X458333Y37699762D01*
X458333Y37642619D01*
X448809Y37623571D01*
X439286Y37614048D01*
X420238Y37604524D01*
X382143Y37604524D01*
X363095Y37614048D01*
X544048Y37623571D02*
X553571Y37614048D01*
X544048Y37604524D01*
X534524Y37614048D01*
X544048Y37623571D01*
X544048Y37604524D01*
X544048Y37728333D02*
X553571Y37718810D01*
X544048Y37709286D01*
X534524Y37718810D01*
X544048Y37728333D01*
X544048Y37709286D01*
D12*
X-1255000Y37360000D02*
X-1085000Y37190000D01*
X-1085000Y37360000D02*
X-1255000Y37190000D01*
D11*
X-722619Y37184524D02*
X-836905Y37184524D01*
X-779762Y37184524D02*
X-779762Y37384524D01*
X-798809Y37355952D01*
X-817857Y37336905D01*
X-836905Y37327381D01*
X-636905Y37203571D02*
X-627381Y37194048D01*
X-636905Y37184524D01*
X-646429Y37194048D01*
X-636905Y37203571D01*
X-636905Y37184524D01*
X-560714Y37384524D02*
X-427381Y37384524D01*
X-513095Y37184524D01*
X-313095Y37384524D02*
X-294048Y37384524D01*
X-275000Y37375000D01*
X-265476Y37365476D01*
X-255952Y37346429D01*
X-246428Y37308333D01*
X-246428Y37260714D01*
X-255952Y37222619D01*
X-265476Y37203571D01*
X-275000Y37194048D01*
X-294048Y37184524D01*
X-313095Y37184524D01*
X-332143Y37194048D01*
X-341667Y37203571D01*
X-351190Y37222619D01*
X-360714Y37260714D01*
X-360714Y37308333D01*
X-351190Y37346429D01*
X-341667Y37365476D01*
X-332143Y37375000D01*
X-313095Y37384524D01*
X-122619Y37384524D02*
X-103571Y37384524D01*
X-84524Y37375000D01*
X-75000Y37365476D01*
X-65476Y37346429D01*
X-55952Y37308333D01*
X-55952Y37260714D01*
X-65476Y37222619D01*
X-75000Y37203571D01*
X-84524Y37194048D01*
X-103571Y37184524D01*
X-122619Y37184524D01*
X-141667Y37194048D01*
X-151190Y37203571D01*
X-160714Y37222619D01*
X-170238Y37260714D01*
X-170238Y37308333D01*
X-160714Y37346429D01*
X-151190Y37365476D01*
X-141667Y37375000D01*
X-122619Y37384524D01*
X29762Y37184524D02*
X29762Y37317857D01*
X29762Y37298810D02*
X39286Y37308333D01*
X58333Y37317857D01*
X86905Y37317857D01*
X105952Y37308333D01*
X115476Y37289286D01*
X115476Y37184524D01*
X115476Y37289286D02*
X125000Y37308333D01*
X144048Y37317857D01*
X172619Y37317857D01*
X191667Y37308333D01*
X201190Y37289286D01*
X201190Y37184524D01*
X296429Y37184524D02*
X296429Y37317857D01*
X296429Y37298810D02*
X305952Y37308333D01*
X325000Y37317857D01*
X353571Y37317857D01*
X372619Y37308333D01*
X382143Y37289286D01*
X382143Y37184524D01*
X382143Y37289286D02*
X391667Y37308333D01*
X410714Y37317857D01*
X439286Y37317857D01*
X458333Y37308333D01*
X467857Y37289286D01*
X467857Y37184524D01*
X858333Y37394048D02*
X686905Y37136905D01*
X1115476Y37384524D02*
X1134524Y37384524D01*
X1153571Y37375000D01*
X1163095Y37365476D01*
X1172619Y37346429D01*
X1182143Y37308333D01*
X1182143Y37260714D01*
X1172619Y37222619D01*
X1163095Y37203571D01*
X1153571Y37194048D01*
X1134524Y37184524D01*
X1115476Y37184524D01*
X1096429Y37194048D01*
X1086905Y37203571D01*
X1077381Y37222619D01*
X1067857Y37260714D01*
X1067857Y37308333D01*
X1077381Y37346429D01*
X1086905Y37365476D01*
X1096429Y37375000D01*
X1115476Y37384524D01*
X1267857Y37203571D02*
X1277381Y37194048D01*
X1267857Y37184524D01*
X1258333Y37194048D01*
X1267857Y37203571D01*
X1267857Y37184524D01*
X1401190Y37384524D02*
X1420238Y37384524D01*
X1439286Y37375000D01*
X1448809Y37365476D01*
X1458333Y37346429D01*
X1467857Y37308333D01*
X1467857Y37260714D01*
X1458333Y37222619D01*
X1448809Y37203571D01*
X1439286Y37194048D01*
X1420238Y37184524D01*
X1401190Y37184524D01*
X1382143Y37194048D01*
X1372619Y37203571D01*
X1363095Y37222619D01*
X1353571Y37260714D01*
X1353571Y37308333D01*
X1363095Y37346429D01*
X1372619Y37365476D01*
X1382143Y37375000D01*
X1401190Y37384524D01*
X1639286Y37384524D02*
X1601190Y37384524D01*
X1582143Y37375000D01*
X1572619Y37365476D01*
X1553571Y37336905D01*
X1544048Y37298810D01*
X1544048Y37222619D01*
X1553571Y37203571D01*
X1563095Y37194048D01*
X1582143Y37184524D01*
X1620238Y37184524D01*
X1639286Y37194048D01*
X1648809Y37203571D01*
X1658333Y37222619D01*
X1658333Y37270238D01*
X1648809Y37289286D01*
X1639286Y37298810D01*
X1620238Y37308333D01*
X1582143Y37308333D01*
X1563095Y37298810D01*
X1553571Y37289286D01*
X1544048Y37270238D01*
X1829762Y37384524D02*
X1791667Y37384524D01*
X1772619Y37375000D01*
X1763095Y37365476D01*
X1744048Y37336905D01*
X1734524Y37298810D01*
X1734524Y37222619D01*
X1744048Y37203571D01*
X1753571Y37194048D01*
X1772619Y37184524D01*
X1810714Y37184524D01*
X1829762Y37194048D01*
X1839286Y37203571D01*
X1848809Y37222619D01*
X1848809Y37270238D01*
X1839286Y37289286D01*
X1829762Y37298810D01*
X1810714Y37308333D01*
X1772619Y37308333D01*
X1753571Y37298810D01*
X1744048Y37289286D01*
X1734524Y37270238D01*
X1944048Y37184524D02*
X1982143Y37184524D01*
X2001190Y37194048D01*
X2010714Y37203571D01*
X2029762Y37232143D01*
X2039286Y37270238D01*
X2039286Y37346429D01*
X2029762Y37365476D01*
X2020238Y37375000D01*
X2001190Y37384524D01*
X1963095Y37384524D01*
X1944048Y37375000D01*
X1934524Y37365476D01*
X1925000Y37346429D01*
X1925000Y37298810D01*
X1934524Y37279762D01*
X1944048Y37270238D01*
X1963095Y37260714D01*
X2001190Y37260714D01*
X2020238Y37270238D01*
X2029762Y37279762D01*
X2039286Y37298810D01*
X2115476Y37384524D02*
X2115476Y37346429D01*
X2191667Y37384524D02*
X2191667Y37346429D01*
X2486905Y37108333D02*
X2477381Y37117857D01*
X2458333Y37146429D01*
X2448810Y37165476D01*
X2439286Y37194048D01*
X2429762Y37241667D01*
X2429762Y37279762D01*
X2439286Y37327381D01*
X2448810Y37355952D01*
X2458333Y37375000D01*
X2477381Y37403571D01*
X2486905Y37413095D01*
X2544048Y37384524D02*
X2667857Y37384524D01*
X2601190Y37308333D01*
X2629762Y37308333D01*
X2648810Y37298810D01*
X2658333Y37289286D01*
X2667857Y37270238D01*
X2667857Y37222619D01*
X2658333Y37203571D01*
X2648810Y37194048D01*
X2629762Y37184524D01*
X2572619Y37184524D01*
X2553571Y37194048D01*
X2544048Y37203571D01*
X2744048Y37365476D02*
X2753571Y37375000D01*
X2772619Y37384524D01*
X2820238Y37384524D01*
X2839286Y37375000D01*
X2848809Y37365476D01*
X2858333Y37346429D01*
X2858333Y37327381D01*
X2848809Y37298810D01*
X2734524Y37184524D01*
X2858333Y37184524D01*
X3096428Y37184524D02*
X3096428Y37384524D01*
X3182143Y37184524D02*
X3182143Y37289286D01*
X3172619Y37308333D01*
X3153571Y37317857D01*
X3125000Y37317857D01*
X3105952Y37308333D01*
X3096428Y37298810D01*
X3305952Y37184524D02*
X3286905Y37194048D01*
X3277381Y37203571D01*
X3267857Y37222619D01*
X3267857Y37279762D01*
X3277381Y37298810D01*
X3286905Y37308333D01*
X3305952Y37317857D01*
X3334524Y37317857D01*
X3353571Y37308333D01*
X3363095Y37298810D01*
X3372619Y37279762D01*
X3372619Y37222619D01*
X3363095Y37203571D01*
X3353571Y37194048D01*
X3334524Y37184524D01*
X3305952Y37184524D01*
X3486905Y37184524D02*
X3467857Y37194048D01*
X3458333Y37213095D01*
X3458333Y37384524D01*
X3639286Y37194048D02*
X3620238Y37184524D01*
X3582143Y37184524D01*
X3563095Y37194048D01*
X3553571Y37213095D01*
X3553571Y37289286D01*
X3563095Y37308333D01*
X3582143Y37317857D01*
X3620238Y37317857D01*
X3639286Y37308333D01*
X3648809Y37289286D01*
X3648809Y37270238D01*
X3553571Y37251190D01*
X3725000Y37194048D02*
X3744048Y37184524D01*
X3782143Y37184524D01*
X3801190Y37194048D01*
X3810714Y37213095D01*
X3810714Y37222619D01*
X3801190Y37241667D01*
X3782143Y37251190D01*
X3753571Y37251190D01*
X3734524Y37260714D01*
X3725000Y37279762D01*
X3725000Y37289286D01*
X3734524Y37308333D01*
X3753571Y37317857D01*
X3782143Y37317857D01*
X3801190Y37308333D01*
X3877381Y37108333D02*
X3886905Y37117857D01*
X3905952Y37146429D01*
X3915476Y37165476D01*
X3925000Y37194048D01*
X3934524Y37241667D01*
X3934524Y37279762D01*
X3925000Y37327381D01*
X3915476Y37355952D01*
X3905952Y37375000D01*
X3886905Y37403571D01*
X3877381Y37413095D01*
X4239286Y37108333D02*
X4229762Y37117857D01*
X4210714Y37146429D01*
X4201190Y37165476D01*
X4191667Y37194048D01*
X4182143Y37241667D01*
X4182143Y37279762D01*
X4191667Y37327381D01*
X4201190Y37355952D01*
X4210714Y37375000D01*
X4229762Y37403571D01*
X4239286Y37413095D01*
X4315476Y37317857D02*
X4315476Y37184524D01*
X4315476Y37298810D02*
X4325000Y37308333D01*
X4344048Y37317857D01*
X4372619Y37317857D01*
X4391667Y37308333D01*
X4401190Y37289286D01*
X4401190Y37184524D01*
X4525000Y37184524D02*
X4505952Y37194048D01*
X4496429Y37203571D01*
X4486905Y37222619D01*
X4486905Y37279762D01*
X4496429Y37298810D01*
X4505952Y37308333D01*
X4525000Y37317857D01*
X4553571Y37317857D01*
X4572619Y37308333D01*
X4582143Y37298810D01*
X4591667Y37279762D01*
X4591667Y37222619D01*
X4582143Y37203571D01*
X4572619Y37194048D01*
X4553571Y37184524D01*
X4525000Y37184524D01*
X4648810Y37317857D02*
X4725000Y37317857D01*
X4677381Y37384524D02*
X4677381Y37213095D01*
X4686905Y37194048D01*
X4705952Y37184524D01*
X4725000Y37184524D01*
X4944048Y37317857D02*
X4944048Y37117857D01*
X4944048Y37308333D02*
X4963095Y37317857D01*
X5001190Y37317857D01*
X5020238Y37308333D01*
X5029762Y37298810D01*
X5039286Y37279762D01*
X5039286Y37222619D01*
X5029762Y37203571D01*
X5020238Y37194048D01*
X5001190Y37184524D01*
X4963095Y37184524D01*
X4944048Y37194048D01*
X5153571Y37184524D02*
X5134524Y37194048D01*
X5125000Y37213095D01*
X5125000Y37384524D01*
X5315476Y37184524D02*
X5315476Y37289286D01*
X5305952Y37308333D01*
X5286905Y37317857D01*
X5248810Y37317857D01*
X5229762Y37308333D01*
X5315476Y37194048D02*
X5296429Y37184524D01*
X5248810Y37184524D01*
X5229762Y37194048D01*
X5220238Y37213095D01*
X5220238Y37232143D01*
X5229762Y37251190D01*
X5248810Y37260714D01*
X5296429Y37260714D01*
X5315476Y37270238D01*
X5382143Y37317857D02*
X5458333Y37317857D01*
X5410714Y37384524D02*
X5410714Y37213095D01*
X5420238Y37194048D01*
X5439286Y37184524D01*
X5458333Y37184524D01*
X5601190Y37194048D02*
X5582143Y37184524D01*
X5544048Y37184524D01*
X5525000Y37194048D01*
X5515476Y37213095D01*
X5515476Y37289286D01*
X5525000Y37308333D01*
X5544048Y37317857D01*
X5582143Y37317857D01*
X5601190Y37308333D01*
X5610714Y37289286D01*
X5610714Y37270238D01*
X5515476Y37251190D01*
X5782143Y37184524D02*
X5782143Y37384524D01*
X5782143Y37194048D02*
X5763095Y37184524D01*
X5725000Y37184524D01*
X5705952Y37194048D01*
X5696428Y37203571D01*
X5686905Y37222619D01*
X5686905Y37279762D01*
X5696428Y37298810D01*
X5705952Y37308333D01*
X5725000Y37317857D01*
X5763095Y37317857D01*
X5782143Y37308333D01*
X5858333Y37108333D02*
X5867857Y37117857D01*
X5886905Y37146429D01*
X5896428Y37165476D01*
X5905952Y37194048D01*
X5915476Y37241667D01*
X5915476Y37279762D01*
X5905952Y37327381D01*
X5896428Y37355952D01*
X5886905Y37375000D01*
X5867857Y37403571D01*
X5858333Y37413095D01*
X-1085000Y36985000D02*
G75*
G03*
X-1085000Y36985000I-100000J0D01*
G01*
X-846428Y37094524D02*
X-722619Y37094524D01*
X-789286Y37018333D01*
X-760714Y37018333D01*
X-741667Y37008810D01*
X-732143Y36999286D01*
X-722619Y36980238D01*
X-722619Y36932619D01*
X-732143Y36913571D01*
X-741667Y36904048D01*
X-760714Y36894524D01*
X-817857Y36894524D01*
X-836905Y36904048D01*
X-846428Y36913571D01*
X-636905Y36913571D02*
X-627381Y36904048D01*
X-636905Y36894524D01*
X-646429Y36904048D01*
X-636905Y36913571D01*
X-636905Y36894524D01*
X-455952Y37027857D02*
X-455952Y36894524D01*
X-503571Y37104048D02*
X-551190Y36961190D01*
X-427381Y36961190D01*
X-313095Y37094524D02*
X-294048Y37094524D01*
X-275000Y37085000D01*
X-265476Y37075476D01*
X-255952Y37056429D01*
X-246428Y37018333D01*
X-246428Y36970714D01*
X-255952Y36932619D01*
X-265476Y36913571D01*
X-275000Y36904048D01*
X-294048Y36894524D01*
X-313095Y36894524D01*
X-332143Y36904048D01*
X-341667Y36913571D01*
X-351190Y36932619D01*
X-360714Y36970714D01*
X-360714Y37018333D01*
X-351190Y37056429D01*
X-341667Y37075476D01*
X-332143Y37085000D01*
X-313095Y37094524D01*
X-122619Y37094524D02*
X-103571Y37094524D01*
X-84524Y37085000D01*
X-75000Y37075476D01*
X-65476Y37056429D01*
X-55952Y37018333D01*
X-55952Y36970714D01*
X-65476Y36932619D01*
X-75000Y36913571D01*
X-84524Y36904048D01*
X-103571Y36894524D01*
X-122619Y36894524D01*
X-141667Y36904048D01*
X-151190Y36913571D01*
X-160714Y36932619D01*
X-170238Y36970714D01*
X-170238Y37018333D01*
X-160714Y37056429D01*
X-151190Y37075476D01*
X-141667Y37085000D01*
X-122619Y37094524D01*
X29762Y36894524D02*
X29762Y37027857D01*
X29762Y37008810D02*
X39286Y37018333D01*
X58333Y37027857D01*
X86905Y37027857D01*
X105952Y37018333D01*
X115476Y36999286D01*
X115476Y36894524D01*
X115476Y36999286D02*
X125000Y37018333D01*
X144048Y37027857D01*
X172619Y37027857D01*
X191667Y37018333D01*
X201190Y36999286D01*
X201190Y36894524D01*
X296429Y36894524D02*
X296429Y37027857D01*
X296429Y37008810D02*
X305952Y37018333D01*
X325000Y37027857D01*
X353571Y37027857D01*
X372619Y37018333D01*
X382143Y36999286D01*
X382143Y36894524D01*
X382143Y36999286D02*
X391667Y37018333D01*
X410714Y37027857D01*
X439286Y37027857D01*
X458333Y37018333D01*
X467857Y36999286D01*
X467857Y36894524D01*
X858333Y37104048D02*
X686905Y36846905D01*
X1115476Y37094524D02*
X1134524Y37094524D01*
X1153571Y37085000D01*
X1163095Y37075476D01*
X1172619Y37056429D01*
X1182143Y37018333D01*
X1182143Y36970714D01*
X1172619Y36932619D01*
X1163095Y36913571D01*
X1153571Y36904048D01*
X1134524Y36894524D01*
X1115476Y36894524D01*
X1096429Y36904048D01*
X1086905Y36913571D01*
X1077381Y36932619D01*
X1067857Y36970714D01*
X1067857Y37018333D01*
X1077381Y37056429D01*
X1086905Y37075476D01*
X1096429Y37085000D01*
X1115476Y37094524D01*
X1267857Y36913571D02*
X1277381Y36904048D01*
X1267857Y36894524D01*
X1258333Y36904048D01*
X1267857Y36913571D01*
X1267857Y36894524D01*
X1467857Y36894524D02*
X1353571Y36894524D01*
X1410714Y36894524D02*
X1410714Y37094524D01*
X1391667Y37065952D01*
X1372619Y37046905D01*
X1353571Y37037381D01*
X1534524Y37094524D02*
X1658333Y37094524D01*
X1591667Y37018333D01*
X1620238Y37018333D01*
X1639286Y37008810D01*
X1648809Y36999286D01*
X1658333Y36980238D01*
X1658333Y36932619D01*
X1648809Y36913571D01*
X1639286Y36904048D01*
X1620238Y36894524D01*
X1563095Y36894524D01*
X1544048Y36904048D01*
X1534524Y36913571D01*
X1725000Y37094524D02*
X1848809Y37094524D01*
X1782143Y37018333D01*
X1810714Y37018333D01*
X1829762Y37008810D01*
X1839286Y36999286D01*
X1848809Y36980238D01*
X1848809Y36932619D01*
X1839286Y36913571D01*
X1829762Y36904048D01*
X1810714Y36894524D01*
X1753571Y36894524D01*
X1734524Y36904048D01*
X1725000Y36913571D01*
X1944048Y36894524D02*
X1982143Y36894524D01*
X2001190Y36904048D01*
X2010714Y36913571D01*
X2029762Y36942143D01*
X2039286Y36980238D01*
X2039286Y37056429D01*
X2029762Y37075476D01*
X2020238Y37085000D01*
X2001190Y37094524D01*
X1963095Y37094524D01*
X1944048Y37085000D01*
X1934524Y37075476D01*
X1925000Y37056429D01*
X1925000Y37008810D01*
X1934524Y36989762D01*
X1944048Y36980238D01*
X1963095Y36970714D01*
X2001190Y36970714D01*
X2020238Y36980238D01*
X2029762Y36989762D01*
X2039286Y37008810D01*
X2115476Y37094524D02*
X2115476Y37056429D01*
X2191667Y37094524D02*
X2191667Y37056429D01*
X2486905Y36818333D02*
X2477381Y36827857D01*
X2458333Y36856429D01*
X2448810Y36875476D01*
X2439286Y36904048D01*
X2429762Y36951667D01*
X2429762Y36989762D01*
X2439286Y37037381D01*
X2448810Y37065952D01*
X2458333Y37085000D01*
X2477381Y37113571D01*
X2486905Y37123095D01*
X2667857Y36894524D02*
X2553571Y36894524D01*
X2610714Y36894524D02*
X2610714Y37094524D01*
X2591667Y37065952D01*
X2572619Y37046905D01*
X2553571Y37037381D01*
X2839286Y37094524D02*
X2801190Y37094524D01*
X2782143Y37085000D01*
X2772619Y37075476D01*
X2753571Y37046905D01*
X2744048Y37008810D01*
X2744048Y36932619D01*
X2753571Y36913571D01*
X2763095Y36904048D01*
X2782143Y36894524D01*
X2820238Y36894524D01*
X2839286Y36904048D01*
X2848809Y36913571D01*
X2858333Y36932619D01*
X2858333Y36980238D01*
X2848809Y36999286D01*
X2839286Y37008810D01*
X2820238Y37018333D01*
X2782143Y37018333D01*
X2763095Y37008810D01*
X2753571Y36999286D01*
X2744048Y36980238D01*
X3096428Y36894524D02*
X3096428Y37094524D01*
X3182143Y36894524D02*
X3182143Y36999286D01*
X3172619Y37018333D01*
X3153571Y37027857D01*
X3125000Y37027857D01*
X3105952Y37018333D01*
X3096428Y37008810D01*
X3305952Y36894524D02*
X3286905Y36904048D01*
X3277381Y36913571D01*
X3267857Y36932619D01*
X3267857Y36989762D01*
X3277381Y37008810D01*
X3286905Y37018333D01*
X3305952Y37027857D01*
X3334524Y37027857D01*
X3353571Y37018333D01*
X3363095Y37008810D01*
X3372619Y36989762D01*
X3372619Y36932619D01*
X3363095Y36913571D01*
X3353571Y36904048D01*
X3334524Y36894524D01*
X3305952Y36894524D01*
X3486905Y36894524D02*
X3467857Y36904048D01*
X3458333Y36923095D01*
X3458333Y37094524D01*
X3639286Y36904048D02*
X3620238Y36894524D01*
X3582143Y36894524D01*
X3563095Y36904048D01*
X3553571Y36923095D01*
X3553571Y36999286D01*
X3563095Y37018333D01*
X3582143Y37027857D01*
X3620238Y37027857D01*
X3639286Y37018333D01*
X3648809Y36999286D01*
X3648809Y36980238D01*
X3553571Y36961190D01*
X3725000Y36904048D02*
X3744048Y36894524D01*
X3782143Y36894524D01*
X3801190Y36904048D01*
X3810714Y36923095D01*
X3810714Y36932619D01*
X3801190Y36951667D01*
X3782143Y36961190D01*
X3753571Y36961190D01*
X3734524Y36970714D01*
X3725000Y36989762D01*
X3725000Y36999286D01*
X3734524Y37018333D01*
X3753571Y37027857D01*
X3782143Y37027857D01*
X3801190Y37018333D01*
X3877381Y36818333D02*
X3886905Y36827857D01*
X3905952Y36856429D01*
X3915476Y36875476D01*
X3925000Y36904048D01*
X3934524Y36951667D01*
X3934524Y36989762D01*
X3925000Y37037381D01*
X3915476Y37065952D01*
X3905952Y37085000D01*
X3886905Y37113571D01*
X3877381Y37123095D01*
X4239286Y36818333D02*
X4229762Y36827857D01*
X4210714Y36856429D01*
X4201190Y36875476D01*
X4191667Y36904048D01*
X4182143Y36951667D01*
X4182143Y36989762D01*
X4191667Y37037381D01*
X4201190Y37065952D01*
X4210714Y37085000D01*
X4229762Y37113571D01*
X4239286Y37123095D01*
X4315476Y37027857D02*
X4315476Y36894524D01*
X4315476Y37008810D02*
X4325000Y37018333D01*
X4344048Y37027857D01*
X4372619Y37027857D01*
X4391667Y37018333D01*
X4401190Y36999286D01*
X4401190Y36894524D01*
X4525000Y36894524D02*
X4505952Y36904048D01*
X4496429Y36913571D01*
X4486905Y36932619D01*
X4486905Y36989762D01*
X4496429Y37008810D01*
X4505952Y37018333D01*
X4525000Y37027857D01*
X4553571Y37027857D01*
X4572619Y37018333D01*
X4582143Y37008810D01*
X4591667Y36989762D01*
X4591667Y36932619D01*
X4582143Y36913571D01*
X4572619Y36904048D01*
X4553571Y36894524D01*
X4525000Y36894524D01*
X4648810Y37027857D02*
X4725000Y37027857D01*
X4677381Y37094524D02*
X4677381Y36923095D01*
X4686905Y36904048D01*
X4705952Y36894524D01*
X4725000Y36894524D01*
X4944048Y37027857D02*
X4944048Y36827857D01*
X4944048Y37018333D02*
X4963095Y37027857D01*
X5001190Y37027857D01*
X5020238Y37018333D01*
X5029762Y37008810D01*
X5039286Y36989762D01*
X5039286Y36932619D01*
X5029762Y36913571D01*
X5020238Y36904048D01*
X5001190Y36894524D01*
X4963095Y36894524D01*
X4944048Y36904048D01*
X5153571Y36894524D02*
X5134524Y36904048D01*
X5125000Y36923095D01*
X5125000Y37094524D01*
X5315476Y36894524D02*
X5315476Y36999286D01*
X5305952Y37018333D01*
X5286905Y37027857D01*
X5248810Y37027857D01*
X5229762Y37018333D01*
X5315476Y36904048D02*
X5296429Y36894524D01*
X5248810Y36894524D01*
X5229762Y36904048D01*
X5220238Y36923095D01*
X5220238Y36942143D01*
X5229762Y36961190D01*
X5248810Y36970714D01*
X5296429Y36970714D01*
X5315476Y36980238D01*
X5382143Y37027857D02*
X5458333Y37027857D01*
X5410714Y37094524D02*
X5410714Y36923095D01*
X5420238Y36904048D01*
X5439286Y36894524D01*
X5458333Y36894524D01*
X5601190Y36904048D02*
X5582143Y36894524D01*
X5544048Y36894524D01*
X5525000Y36904048D01*
X5515476Y36923095D01*
X5515476Y36999286D01*
X5525000Y37018333D01*
X5544048Y37027857D01*
X5582143Y37027857D01*
X5601190Y37018333D01*
X5610714Y36999286D01*
X5610714Y36980238D01*
X5515476Y36961190D01*
X5782143Y36894524D02*
X5782143Y37094524D01*
X5782143Y36904048D02*
X5763095Y36894524D01*
X5725000Y36894524D01*
X5705952Y36904048D01*
X5696428Y36913571D01*
X5686905Y36932619D01*
X5686905Y36989762D01*
X5696428Y37008810D01*
X5705952Y37018333D01*
X5725000Y37027857D01*
X5763095Y37027857D01*
X5782143Y37018333D01*
X5858333Y36818333D02*
X5867857Y36827857D01*
X5886905Y36856429D01*
X5896428Y36875476D01*
X5905952Y36904048D01*
X5915476Y36951667D01*
X5915476Y36989762D01*
X5905952Y37037381D01*
X5896428Y37065952D01*
X5886905Y37085000D01*
X5867857Y37113571D01*
X5858333Y37123095D01*
M02*
