M48
; DRILL file {KiCad (6.0.7-1)-1} date Monday, October 31, 2022 at 10:34:22 PM
; FORMAT={-:-/ absolute / inch / decimal}
; #@! TF.CreationDate,2022-10-31T22:34:22+08:00
; #@! TF.GenerationSoftware,Kicad,Pcbnew,(6.0.7-1)-1
; #@! TF.FileFunction,Plated,1,2,PTH
FMAT,2
INCH
; #@! TA.AperFunction,Plated,PTH,ComponentDrill
T1C0.0157
; #@! TA.AperFunction,Plated,PTH,ComponentDrill
T2C0.0394
; #@! TA.AperFunction,Plated,PTH,ComponentDrill
T3C0.0400
; #@! TA.AperFunction,Plated,PTH,ComponentDrill
T4C0.0472
%
G90
G05
T1
X-0.124Y16.9094
X-0.124Y16.2205
X0.0059Y16.9094
X0.0059Y16.2205
X0.6043Y17.6378
X0.6043Y16.9488
X0.6043Y16.2598
X0.7343Y17.6378
X0.7343Y16.9488
X0.7343Y16.2598
X1.3327Y17.7165
X1.3327Y17.0276
X1.3327Y16.3386
X1.4626Y17.7165
X1.4626Y17.0276
X1.4626Y16.3386
X2.061Y17.5984
X2.061Y16.9094
X2.061Y16.2205
X2.1909Y17.5984
X2.1909Y16.9094
X2.1909Y16.2205
X2.2084Y15.4195
X2.3364Y15.3969
X2.7894Y17.5197
X2.7894Y16.8307
X2.7894Y16.1417
X2.9193Y17.5197
X2.9193Y16.8307
X2.9193Y16.1417
X2.9311Y15.2309
X3.0532Y15.1864
T2
X-0.3394Y15.8906
X-0.3394Y15.2906
X-0.2394Y15.8906
X-0.2394Y15.2906
X-0.1394Y15.8906
X-0.1394Y15.2906
X-0.0394Y15.8906
X-0.0394Y15.2906
X0.0606Y15.8906
X0.0606Y15.2906
X0.1606Y15.8906
X0.1606Y15.2906
X0.2606Y15.8906
X0.2606Y15.2906
X0.5669Y15.4843
X0.5669Y15.3858
T3
X-0.3769Y15.6406
X-0.3769Y15.5406
X-0.2769Y15.6406
X-0.2769Y15.5406
X-0.1269Y15.4156
X-0.1262Y15.7638
X-0.0519Y15.4156
X-0.0512Y15.7638
X0.3231Y15.8156
X0.3231Y15.7406
T4
X-0.2559Y17.2362
X-0.2559Y16.5472
X-0.0591Y17.3189
X-0.0591Y16.6299
X0.1378Y17.2362
X0.1378Y16.5472
X0.4724Y17.9646
X0.4724Y17.2756
X0.4724Y16.5866
X0.6693Y18.0472
X0.6693Y17.3583
X0.6693Y16.6693
X0.8661Y17.9646
X0.8661Y17.2756
X0.8661Y16.5866
X1.2008Y18.0433
X1.2008Y17.3543
X1.2008Y16.6654
X1.3976Y18.126
X1.3976Y17.437
X1.3976Y16.748
X1.5945Y18.0433
X1.5945Y17.3543
X1.5945Y16.6654
X1.9291Y17.9252
X1.9291Y17.2362
X1.9291Y16.5472
X2.126Y18.0079
X2.126Y17.3189
X2.126Y16.6299
X2.1353Y15.7642
X2.3228Y17.9252
X2.3228Y17.2362
X2.3228Y16.5472
X2.3435Y15.8114
X2.523Y15.6958
X2.6575Y17.8465
X2.6575Y17.1575
X2.6575Y16.4685
X2.8543Y17.9291
X2.8543Y17.2402
X2.8543Y16.5512
X2.9189Y15.5831
X3.0512Y17.8465
X3.0512Y17.1575
X3.0512Y16.4685
X3.1322Y15.5934
X3.2889Y15.4484
T0
M30
