%TF.GenerationSoftware,KiCad,Pcbnew,(6.0.7-1)-1*%
%TF.CreationDate,2022-10-31T22:34:20+08:00*%
%TF.ProjectId,kamao,6b616d61-6f2e-46b6-9963-61645f706362,rev?*%
%TF.SameCoordinates,Original*%
%TF.FileFunction,Drillmap*%
%TF.FilePolarity,Positive*%
%FSLAX45Y45*%
G04 Gerber Fmt 4.5, Leading zero omitted, Abs format (unit mm)*
G04 Created by KiCad (PCBNEW (6.0.7-1)-1) date 2022-10-31 22:34:20*
%MOMM*%
%LPD*%
G01*
G04 APERTURE LIST*
%ADD10C,0.100000*%
%ADD11C,0.200000*%
%ADD12C,0.040000*%
%ADD13C,0.101600*%
%ADD14C,0.120000*%
G04 APERTURE END LIST*
D10*
X330278Y39600000D02*
G75*
G03*
X330278Y39600000I-180278J0D01*
G01*
X4610000Y46140000D02*
X6290000Y46140000D01*
X6509882Y45870179D01*
X8189882Y45860179D01*
X8190000Y40060000D01*
X8870000Y39610000D01*
X8900000Y39490000D01*
X8310000Y37920000D01*
X-1080000Y38470000D01*
X-1080000Y44340000D01*
X800000Y46160000D01*
X2530000Y46170000D01*
X2660000Y46370000D01*
X4410000Y46370000D01*
X4610000Y46140000D01*
D11*
D12*
X-335000Y42970000D02*
X-295000Y42930000D01*
X-295000Y42970000D02*
X-335000Y42930000D01*
X-335000Y41220000D02*
X-295000Y41180000D01*
X-295000Y41220000D02*
X-335000Y41180000D01*
X-5000Y42970000D02*
X35000Y42930000D01*
X35000Y42970000D02*
X-5000Y42930000D01*
X-5000Y41220000D02*
X35000Y41180000D01*
X35000Y41220000D02*
X-5000Y41180000D01*
X1515000Y44820000D02*
X1555000Y44780000D01*
X1555000Y44820000D02*
X1515000Y44780000D01*
X1515000Y43070000D02*
X1555000Y43030000D01*
X1555000Y43070000D02*
X1515000Y43030000D01*
X1515000Y41320000D02*
X1555000Y41280000D01*
X1555000Y41320000D02*
X1515000Y41280000D01*
X1845000Y44820000D02*
X1885000Y44780000D01*
X1885000Y44820000D02*
X1845000Y44780000D01*
X1845000Y43070000D02*
X1885000Y43030000D01*
X1885000Y43070000D02*
X1845000Y43030000D01*
X1845000Y41320000D02*
X1885000Y41280000D01*
X1885000Y41320000D02*
X1845000Y41280000D01*
X3365000Y45020000D02*
X3405000Y44980000D01*
X3405000Y45020000D02*
X3365000Y44980000D01*
X3365000Y43270000D02*
X3405000Y43230000D01*
X3405000Y43270000D02*
X3365000Y43230000D01*
X3365000Y41520000D02*
X3405000Y41480000D01*
X3405000Y41520000D02*
X3365000Y41480000D01*
X3695000Y45020000D02*
X3735000Y44980000D01*
X3735000Y45020000D02*
X3695000Y44980000D01*
X3695000Y43270000D02*
X3735000Y43230000D01*
X3735000Y43270000D02*
X3695000Y43230000D01*
X3695000Y41520000D02*
X3735000Y41480000D01*
X3735000Y41520000D02*
X3695000Y41480000D01*
X5215000Y44720000D02*
X5255000Y44680000D01*
X5255000Y44720000D02*
X5215000Y44680000D01*
X5215000Y42970000D02*
X5255000Y42930000D01*
X5255000Y42970000D02*
X5215000Y42930000D01*
X5215000Y41220000D02*
X5255000Y41180000D01*
X5255000Y41220000D02*
X5215000Y41180000D01*
X5545000Y44720000D02*
X5585000Y44680000D01*
X5585000Y44720000D02*
X5545000Y44680000D01*
X5545000Y42970000D02*
X5585000Y42930000D01*
X5585000Y42970000D02*
X5545000Y42930000D01*
X5545000Y41220000D02*
X5585000Y41180000D01*
X5585000Y41220000D02*
X5545000Y41180000D01*
X5589365Y39185488D02*
X5629365Y39145488D01*
X5629365Y39185488D02*
X5589365Y39145488D01*
X5914352Y39128185D02*
X5954352Y39088185D01*
X5954352Y39128185D02*
X5914352Y39088185D01*
X7065000Y44520000D02*
X7105000Y44480000D01*
X7105000Y44520000D02*
X7065000Y44480000D01*
X7065000Y42770000D02*
X7105000Y42730000D01*
X7105000Y42770000D02*
X7065000Y42730000D01*
X7065000Y41020000D02*
X7105000Y40980000D01*
X7105000Y41020000D02*
X7065000Y40980000D01*
X7395000Y44520000D02*
X7435000Y44480000D01*
X7435000Y44520000D02*
X7395000Y44480000D01*
X7395000Y42770000D02*
X7435000Y42730000D01*
X7435000Y42770000D02*
X7395000Y42730000D01*
X7395000Y41020000D02*
X7435000Y40980000D01*
X7435000Y41020000D02*
X7395000Y40980000D01*
X7424951Y38706433D02*
X7464951Y38666433D01*
X7464951Y38706433D02*
X7424951Y38666433D01*
X7735049Y38593567D02*
X7775049Y38553567D01*
X7775049Y38593567D02*
X7735049Y38553567D01*
D10*
X-812000Y40362000D02*
G75*
G03*
X-812000Y40362000I-50000J0D01*
G01*
X-812000Y38838000D02*
G75*
G03*
X-812000Y38838000I-50000J0D01*
G01*
X-558000Y40362000D02*
G75*
G03*
X-558000Y40362000I-50000J0D01*
G01*
X-558000Y38838000D02*
G75*
G03*
X-558000Y38838000I-50000J0D01*
G01*
X-304000Y40362000D02*
G75*
G03*
X-304000Y40362000I-50000J0D01*
G01*
X-304000Y38838000D02*
G75*
G03*
X-304000Y38838000I-50000J0D01*
G01*
X-50000Y40362000D02*
G75*
G03*
X-50000Y40362000I-50000J0D01*
G01*
X-50000Y38838000D02*
G75*
G03*
X-50000Y38838000I-50000J0D01*
G01*
X204000Y40362000D02*
G75*
G03*
X204000Y40362000I-50000J0D01*
G01*
X204000Y38838000D02*
G75*
G03*
X204000Y38838000I-50000J0D01*
G01*
X458000Y40362000D02*
G75*
G03*
X458000Y40362000I-50000J0D01*
G01*
X458000Y38838000D02*
G75*
G03*
X458000Y38838000I-50000J0D01*
G01*
X712000Y40362000D02*
G75*
G03*
X712000Y40362000I-50000J0D01*
G01*
X712000Y38838000D02*
G75*
G03*
X712000Y38838000I-50000J0D01*
G01*
X1490000Y39330000D02*
G75*
G03*
X1490000Y39330000I-50000J0D01*
G01*
X1490000Y39080000D02*
G75*
G03*
X1490000Y39080000I-50000J0D01*
G01*
D13*
X-957200Y39777800D02*
X-957200Y39676200D01*
X-1008000Y39727000D02*
X-906400Y39727000D01*
X-957200Y39523800D02*
X-957200Y39422200D01*
X-1008000Y39473000D02*
X-906400Y39473000D01*
X-703200Y39777800D02*
X-703200Y39676200D01*
X-754000Y39727000D02*
X-652400Y39727000D01*
X-703200Y39523800D02*
X-703200Y39422200D01*
X-754000Y39473000D02*
X-652400Y39473000D01*
X-322200Y39206300D02*
X-322200Y39104700D01*
X-373000Y39155500D02*
X-271400Y39155500D01*
X-320500Y40090800D02*
X-320500Y39989200D01*
X-371300Y40040000D02*
X-269700Y40040000D01*
X-131700Y39206300D02*
X-131700Y39104700D01*
X-182500Y39155500D02*
X-80900Y39155500D01*
X-130000Y40090800D02*
X-130000Y39989200D01*
X-180800Y40040000D02*
X-79200Y40040000D01*
X820800Y40222300D02*
X820800Y40120700D01*
X770000Y40171500D02*
X871600Y40171500D01*
X820800Y40031800D02*
X820800Y39930200D01*
X770000Y39981000D02*
X871600Y39981000D01*
D14*
X-607573Y43737573D02*
X-607573Y43822427D01*
X-692427Y43822427D01*
X-692427Y43737573D01*
X-607573Y43737573D01*
X-607573Y41987573D02*
X-607573Y42072427D01*
X-692427Y42072427D01*
X-692427Y41987573D01*
X-607573Y41987573D01*
X-107573Y43947573D02*
X-107573Y44032427D01*
X-192427Y44032427D01*
X-192427Y43947573D01*
X-107573Y43947573D01*
X-107573Y42197573D02*
X-107573Y42282427D01*
X-192427Y42282427D01*
X-192427Y42197573D01*
X-107573Y42197573D01*
X392427Y43737573D02*
X392427Y43822427D01*
X307573Y43822427D01*
X307573Y43737573D01*
X392427Y43737573D01*
X392427Y41987573D02*
X392427Y42072427D01*
X307573Y42072427D01*
X307573Y41987573D01*
X392427Y41987573D01*
X1242427Y45587573D02*
X1242427Y45672427D01*
X1157573Y45672427D01*
X1157573Y45587573D01*
X1242427Y45587573D01*
X1242427Y43837573D02*
X1242427Y43922427D01*
X1157573Y43922427D01*
X1157573Y43837573D01*
X1242427Y43837573D01*
X1242427Y42087573D02*
X1242427Y42172427D01*
X1157573Y42172427D01*
X1157573Y42087573D01*
X1242427Y42087573D01*
X1742427Y45797573D02*
X1742427Y45882427D01*
X1657573Y45882427D01*
X1657573Y45797573D01*
X1742427Y45797573D01*
X1742427Y44047573D02*
X1742427Y44132427D01*
X1657573Y44132427D01*
X1657573Y44047573D01*
X1742427Y44047573D01*
X1742427Y42297573D02*
X1742427Y42382427D01*
X1657573Y42382427D01*
X1657573Y42297573D01*
X1742427Y42297573D01*
X2242427Y45587573D02*
X2242427Y45672427D01*
X2157573Y45672427D01*
X2157573Y45587573D01*
X2242427Y45587573D01*
X2242427Y43837573D02*
X2242427Y43922427D01*
X2157573Y43922427D01*
X2157573Y43837573D01*
X2242427Y43837573D01*
X2242427Y42087573D02*
X2242427Y42172427D01*
X2157573Y42172427D01*
X2157573Y42087573D01*
X2242427Y42087573D01*
X3092427Y45787573D02*
X3092427Y45872427D01*
X3007573Y45872427D01*
X3007573Y45787573D01*
X3092427Y45787573D01*
X3092427Y44037573D02*
X3092427Y44122427D01*
X3007573Y44122427D01*
X3007573Y44037573D01*
X3092427Y44037573D01*
X3092427Y42287573D02*
X3092427Y42372427D01*
X3007573Y42372427D01*
X3007573Y42287573D01*
X3092427Y42287573D01*
X3592427Y45997573D02*
X3592427Y46082427D01*
X3507573Y46082427D01*
X3507573Y45997573D01*
X3592427Y45997573D01*
X3592427Y44247573D02*
X3592427Y44332427D01*
X3507573Y44332427D01*
X3507573Y44247573D01*
X3592427Y44247573D01*
X3592427Y42497573D02*
X3592427Y42582427D01*
X3507573Y42582427D01*
X3507573Y42497573D01*
X3592427Y42497573D01*
X4092427Y45787573D02*
X4092427Y45872427D01*
X4007573Y45872427D01*
X4007573Y45787573D01*
X4092427Y45787573D01*
X4092427Y44037573D02*
X4092427Y44122427D01*
X4007573Y44122427D01*
X4007573Y44037573D01*
X4092427Y44037573D01*
X4092427Y42287573D02*
X4092427Y42372427D01*
X4007573Y42372427D01*
X4007573Y42287573D01*
X4092427Y42287573D01*
X4942427Y45487573D02*
X4942427Y45572427D01*
X4857573Y45572427D01*
X4857573Y45487573D01*
X4942427Y45487573D01*
X4942427Y43737573D02*
X4942427Y43822427D01*
X4857573Y43822427D01*
X4857573Y43737573D01*
X4942427Y43737573D01*
X4942427Y41987573D02*
X4942427Y42072427D01*
X4857573Y42072427D01*
X4857573Y41987573D01*
X4942427Y41987573D01*
X5442427Y45697573D02*
X5442427Y45782427D01*
X5357573Y45782427D01*
X5357573Y45697573D01*
X5442427Y45697573D01*
X5442427Y43947573D02*
X5442427Y44032427D01*
X5357573Y44032427D01*
X5357573Y43947573D01*
X5442427Y43947573D01*
X5442427Y42197573D02*
X5442427Y42282427D01*
X5357573Y42282427D01*
X5357573Y42197573D01*
X5442427Y42197573D01*
X5466009Y39998624D02*
X5466009Y40083478D01*
X5381156Y40083478D01*
X5381156Y39998624D01*
X5466009Y39998624D01*
X5942427Y45487573D02*
X5942427Y45572427D01*
X5857573Y45572427D01*
X5857573Y45487573D01*
X5942427Y45487573D01*
X5942427Y43737573D02*
X5942427Y43822427D01*
X5857573Y43822427D01*
X5857573Y43737573D01*
X5942427Y43737573D01*
X5942427Y41987573D02*
X5942427Y42072427D01*
X5857573Y42072427D01*
X5857573Y41987573D01*
X5942427Y41987573D01*
X5994879Y40118610D02*
X5994879Y40203463D01*
X5910026Y40203463D01*
X5910026Y40118610D01*
X5994879Y40118610D01*
X6450817Y39824976D02*
X6450817Y39909830D01*
X6365963Y39909830D01*
X6365963Y39824976D01*
X6450817Y39824976D01*
X6792427Y45287573D02*
X6792427Y45372427D01*
X6707573Y45372427D01*
X6707573Y45287573D01*
X6792427Y45287573D01*
X6792427Y43537573D02*
X6792427Y43622427D01*
X6707573Y43622427D01*
X6707573Y43537573D01*
X6792427Y43537573D01*
X6792427Y41787573D02*
X6792427Y41872427D01*
X6707573Y41872427D01*
X6707573Y41787573D01*
X6792427Y41787573D01*
X7292427Y45497573D02*
X7292427Y45582427D01*
X7207573Y45582427D01*
X7207573Y45497573D01*
X7292427Y45497573D01*
X7292427Y43747573D02*
X7292427Y43832427D01*
X7207573Y43832427D01*
X7207573Y43747573D01*
X7292427Y43747573D01*
X7292427Y41997573D02*
X7292427Y42082427D01*
X7207573Y42082427D01*
X7207573Y41997573D01*
X7292427Y41997573D01*
X7456457Y39538528D02*
X7456457Y39623382D01*
X7371604Y39623382D01*
X7371604Y39538528D01*
X7456457Y39538528D01*
X7792427Y45287573D02*
X7792427Y45372427D01*
X7707573Y45372427D01*
X7707573Y45287573D01*
X7792427Y45287573D01*
X7792427Y43537573D02*
X7792427Y43622427D01*
X7707573Y43622427D01*
X7707573Y43537573D01*
X7792427Y43537573D01*
X7792427Y41787573D02*
X7792427Y41872427D01*
X7707573Y41872427D01*
X7707573Y41787573D01*
X7792427Y41787573D01*
X7998128Y39564854D02*
X7998128Y39649707D01*
X7913274Y39649707D01*
X7913274Y39564854D01*
X7998128Y39564854D01*
X8396150Y39196508D02*
X8396150Y39281362D01*
X8311296Y39281362D01*
X8311296Y39196508D01*
X8396150Y39196508D01*
D11*
X-827381Y37604524D02*
X-827381Y37804524D01*
X-779762Y37804524D01*
X-751190Y37795000D01*
X-732143Y37775952D01*
X-722619Y37756905D01*
X-713095Y37718810D01*
X-713095Y37690238D01*
X-722619Y37652143D01*
X-732143Y37633095D01*
X-751190Y37614048D01*
X-779762Y37604524D01*
X-827381Y37604524D01*
X-627381Y37604524D02*
X-627381Y37737857D01*
X-627381Y37699762D02*
X-617857Y37718810D01*
X-608333Y37728333D01*
X-589286Y37737857D01*
X-570238Y37737857D01*
X-503571Y37604524D02*
X-503571Y37737857D01*
X-503571Y37804524D02*
X-513095Y37795000D01*
X-503571Y37785476D01*
X-494048Y37795000D01*
X-503571Y37804524D01*
X-503571Y37785476D01*
X-379762Y37604524D02*
X-398809Y37614048D01*
X-408333Y37633095D01*
X-408333Y37804524D01*
X-275000Y37604524D02*
X-294048Y37614048D01*
X-303571Y37633095D01*
X-303571Y37804524D01*
X-46428Y37604524D02*
X-46428Y37804524D01*
X20238Y37661667D01*
X86905Y37804524D01*
X86905Y37604524D01*
X267857Y37604524D02*
X267857Y37709286D01*
X258333Y37728333D01*
X239286Y37737857D01*
X201190Y37737857D01*
X182143Y37728333D01*
X267857Y37614048D02*
X248809Y37604524D01*
X201190Y37604524D01*
X182143Y37614048D01*
X172619Y37633095D01*
X172619Y37652143D01*
X182143Y37671190D01*
X201190Y37680714D01*
X248809Y37680714D01*
X267857Y37690238D01*
X363095Y37737857D02*
X363095Y37537857D01*
X363095Y37728333D02*
X382143Y37737857D01*
X420238Y37737857D01*
X439286Y37728333D01*
X448809Y37718810D01*
X458333Y37699762D01*
X458333Y37642619D01*
X448809Y37623571D01*
X439286Y37614048D01*
X420238Y37604524D01*
X382143Y37604524D01*
X363095Y37614048D01*
X544048Y37623571D02*
X553571Y37614048D01*
X544048Y37604524D01*
X534524Y37614048D01*
X544048Y37623571D01*
X544048Y37604524D01*
X544048Y37728333D02*
X553571Y37718810D01*
X544048Y37709286D01*
X534524Y37718810D01*
X544048Y37728333D01*
X544048Y37709286D01*
D12*
X-1125000Y37295000D02*
X-1085000Y37255000D01*
X-1085000Y37295000D02*
X-1125000Y37255000D01*
D11*
X-789286Y37384524D02*
X-770238Y37384524D01*
X-751190Y37375000D01*
X-741667Y37365476D01*
X-732143Y37346429D01*
X-722619Y37308333D01*
X-722619Y37260714D01*
X-732143Y37222619D01*
X-741667Y37203571D01*
X-751190Y37194048D01*
X-770238Y37184524D01*
X-789286Y37184524D01*
X-808333Y37194048D01*
X-817857Y37203571D01*
X-827381Y37222619D01*
X-836905Y37260714D01*
X-836905Y37308333D01*
X-827381Y37346429D01*
X-817857Y37365476D01*
X-808333Y37375000D01*
X-789286Y37384524D01*
X-636905Y37203571D02*
X-627381Y37194048D01*
X-636905Y37184524D01*
X-646429Y37194048D01*
X-636905Y37203571D01*
X-636905Y37184524D01*
X-455952Y37317857D02*
X-455952Y37184524D01*
X-503571Y37394048D02*
X-551190Y37251190D01*
X-427381Y37251190D01*
X-313095Y37384524D02*
X-294048Y37384524D01*
X-275000Y37375000D01*
X-265476Y37365476D01*
X-255952Y37346429D01*
X-246428Y37308333D01*
X-246428Y37260714D01*
X-255952Y37222619D01*
X-265476Y37203571D01*
X-275000Y37194048D01*
X-294048Y37184524D01*
X-313095Y37184524D01*
X-332143Y37194048D01*
X-341667Y37203571D01*
X-351190Y37222619D01*
X-360714Y37260714D01*
X-360714Y37308333D01*
X-351190Y37346429D01*
X-341667Y37365476D01*
X-332143Y37375000D01*
X-313095Y37384524D01*
X-122619Y37384524D02*
X-103571Y37384524D01*
X-84524Y37375000D01*
X-75000Y37365476D01*
X-65476Y37346429D01*
X-55952Y37308333D01*
X-55952Y37260714D01*
X-65476Y37222619D01*
X-75000Y37203571D01*
X-84524Y37194048D01*
X-103571Y37184524D01*
X-122619Y37184524D01*
X-141667Y37194048D01*
X-151190Y37203571D01*
X-160714Y37222619D01*
X-170238Y37260714D01*
X-170238Y37308333D01*
X-160714Y37346429D01*
X-151190Y37365476D01*
X-141667Y37375000D01*
X-122619Y37384524D01*
X29762Y37184524D02*
X29762Y37317857D01*
X29762Y37298810D02*
X39286Y37308333D01*
X58333Y37317857D01*
X86905Y37317857D01*
X105952Y37308333D01*
X115476Y37289286D01*
X115476Y37184524D01*
X115476Y37289286D02*
X125000Y37308333D01*
X144048Y37317857D01*
X172619Y37317857D01*
X191667Y37308333D01*
X201190Y37289286D01*
X201190Y37184524D01*
X296429Y37184524D02*
X296429Y37317857D01*
X296429Y37298810D02*
X305952Y37308333D01*
X325000Y37317857D01*
X353571Y37317857D01*
X372619Y37308333D01*
X382143Y37289286D01*
X382143Y37184524D01*
X382143Y37289286D02*
X391667Y37308333D01*
X410714Y37317857D01*
X439286Y37317857D01*
X458333Y37308333D01*
X467857Y37289286D01*
X467857Y37184524D01*
X858333Y37394048D02*
X686905Y37136905D01*
X1115476Y37384524D02*
X1134524Y37384524D01*
X1153571Y37375000D01*
X1163095Y37365476D01*
X1172619Y37346429D01*
X1182143Y37308333D01*
X1182143Y37260714D01*
X1172619Y37222619D01*
X1163095Y37203571D01*
X1153571Y37194048D01*
X1134524Y37184524D01*
X1115476Y37184524D01*
X1096429Y37194048D01*
X1086905Y37203571D01*
X1077381Y37222619D01*
X1067857Y37260714D01*
X1067857Y37308333D01*
X1077381Y37346429D01*
X1086905Y37365476D01*
X1096429Y37375000D01*
X1115476Y37384524D01*
X1267857Y37203571D02*
X1277381Y37194048D01*
X1267857Y37184524D01*
X1258333Y37194048D01*
X1267857Y37203571D01*
X1267857Y37184524D01*
X1401190Y37384524D02*
X1420238Y37384524D01*
X1439286Y37375000D01*
X1448809Y37365476D01*
X1458333Y37346429D01*
X1467857Y37308333D01*
X1467857Y37260714D01*
X1458333Y37222619D01*
X1448809Y37203571D01*
X1439286Y37194048D01*
X1420238Y37184524D01*
X1401190Y37184524D01*
X1382143Y37194048D01*
X1372619Y37203571D01*
X1363095Y37222619D01*
X1353571Y37260714D01*
X1353571Y37308333D01*
X1363095Y37346429D01*
X1372619Y37365476D01*
X1382143Y37375000D01*
X1401190Y37384524D01*
X1658333Y37184524D02*
X1544048Y37184524D01*
X1601190Y37184524D02*
X1601190Y37384524D01*
X1582143Y37355952D01*
X1563095Y37336905D01*
X1544048Y37327381D01*
X1839286Y37384524D02*
X1744048Y37384524D01*
X1734524Y37289286D01*
X1744048Y37298810D01*
X1763095Y37308333D01*
X1810714Y37308333D01*
X1829762Y37298810D01*
X1839286Y37289286D01*
X1848809Y37270238D01*
X1848809Y37222619D01*
X1839286Y37203571D01*
X1829762Y37194048D01*
X1810714Y37184524D01*
X1763095Y37184524D01*
X1744048Y37194048D01*
X1734524Y37203571D01*
X1915476Y37384524D02*
X2048809Y37384524D01*
X1963095Y37184524D01*
X2115476Y37384524D02*
X2115476Y37346429D01*
X2191667Y37384524D02*
X2191667Y37346429D01*
X2486905Y37108333D02*
X2477381Y37117857D01*
X2458333Y37146429D01*
X2448810Y37165476D01*
X2439286Y37194048D01*
X2429762Y37241667D01*
X2429762Y37279762D01*
X2439286Y37327381D01*
X2448810Y37355952D01*
X2458333Y37375000D01*
X2477381Y37403571D01*
X2486905Y37413095D01*
X2544048Y37384524D02*
X2667857Y37384524D01*
X2601190Y37308333D01*
X2629762Y37308333D01*
X2648810Y37298810D01*
X2658333Y37289286D01*
X2667857Y37270238D01*
X2667857Y37222619D01*
X2658333Y37203571D01*
X2648810Y37194048D01*
X2629762Y37184524D01*
X2572619Y37184524D01*
X2553571Y37194048D01*
X2544048Y37203571D01*
X2744048Y37365476D02*
X2753571Y37375000D01*
X2772619Y37384524D01*
X2820238Y37384524D01*
X2839286Y37375000D01*
X2848809Y37365476D01*
X2858333Y37346429D01*
X2858333Y37327381D01*
X2848809Y37298810D01*
X2734524Y37184524D01*
X2858333Y37184524D01*
X3096428Y37184524D02*
X3096428Y37384524D01*
X3182143Y37184524D02*
X3182143Y37289286D01*
X3172619Y37308333D01*
X3153571Y37317857D01*
X3125000Y37317857D01*
X3105952Y37308333D01*
X3096428Y37298810D01*
X3305952Y37184524D02*
X3286905Y37194048D01*
X3277381Y37203571D01*
X3267857Y37222619D01*
X3267857Y37279762D01*
X3277381Y37298810D01*
X3286905Y37308333D01*
X3305952Y37317857D01*
X3334524Y37317857D01*
X3353571Y37308333D01*
X3363095Y37298810D01*
X3372619Y37279762D01*
X3372619Y37222619D01*
X3363095Y37203571D01*
X3353571Y37194048D01*
X3334524Y37184524D01*
X3305952Y37184524D01*
X3486905Y37184524D02*
X3467857Y37194048D01*
X3458333Y37213095D01*
X3458333Y37384524D01*
X3639286Y37194048D02*
X3620238Y37184524D01*
X3582143Y37184524D01*
X3563095Y37194048D01*
X3553571Y37213095D01*
X3553571Y37289286D01*
X3563095Y37308333D01*
X3582143Y37317857D01*
X3620238Y37317857D01*
X3639286Y37308333D01*
X3648809Y37289286D01*
X3648809Y37270238D01*
X3553571Y37251190D01*
X3725000Y37194048D02*
X3744048Y37184524D01*
X3782143Y37184524D01*
X3801190Y37194048D01*
X3810714Y37213095D01*
X3810714Y37222619D01*
X3801190Y37241667D01*
X3782143Y37251190D01*
X3753571Y37251190D01*
X3734524Y37260714D01*
X3725000Y37279762D01*
X3725000Y37289286D01*
X3734524Y37308333D01*
X3753571Y37317857D01*
X3782143Y37317857D01*
X3801190Y37308333D01*
X3877381Y37108333D02*
X3886905Y37117857D01*
X3905952Y37146429D01*
X3915476Y37165476D01*
X3925000Y37194048D01*
X3934524Y37241667D01*
X3934524Y37279762D01*
X3925000Y37327381D01*
X3915476Y37355952D01*
X3905952Y37375000D01*
X3886905Y37403571D01*
X3877381Y37413095D01*
D10*
X-1085000Y37011000D02*
G75*
G03*
X-1085000Y37011000I-50000J0D01*
G01*
D11*
X-722619Y36920524D02*
X-836905Y36920524D01*
X-779762Y36920524D02*
X-779762Y37120524D01*
X-798809Y37091952D01*
X-817857Y37072905D01*
X-836905Y37063381D01*
X-636905Y36939571D02*
X-627381Y36930048D01*
X-636905Y36920524D01*
X-646429Y36930048D01*
X-636905Y36939571D01*
X-636905Y36920524D01*
X-503571Y37120524D02*
X-484524Y37120524D01*
X-465476Y37111000D01*
X-455952Y37101476D01*
X-446428Y37082429D01*
X-436905Y37044333D01*
X-436905Y36996714D01*
X-446428Y36958619D01*
X-455952Y36939571D01*
X-465476Y36930048D01*
X-484524Y36920524D01*
X-503571Y36920524D01*
X-522619Y36930048D01*
X-532143Y36939571D01*
X-541667Y36958619D01*
X-551190Y36996714D01*
X-551190Y37044333D01*
X-541667Y37082429D01*
X-532143Y37101476D01*
X-522619Y37111000D01*
X-503571Y37120524D01*
X-313095Y37120524D02*
X-294048Y37120524D01*
X-275000Y37111000D01*
X-265476Y37101476D01*
X-255952Y37082429D01*
X-246428Y37044333D01*
X-246428Y36996714D01*
X-255952Y36958619D01*
X-265476Y36939571D01*
X-275000Y36930048D01*
X-294048Y36920524D01*
X-313095Y36920524D01*
X-332143Y36930048D01*
X-341667Y36939571D01*
X-351190Y36958619D01*
X-360714Y36996714D01*
X-360714Y37044333D01*
X-351190Y37082429D01*
X-341667Y37101476D01*
X-332143Y37111000D01*
X-313095Y37120524D01*
X-122619Y37120524D02*
X-103571Y37120524D01*
X-84524Y37111000D01*
X-75000Y37101476D01*
X-65476Y37082429D01*
X-55952Y37044333D01*
X-55952Y36996714D01*
X-65476Y36958619D01*
X-75000Y36939571D01*
X-84524Y36930048D01*
X-103571Y36920524D01*
X-122619Y36920524D01*
X-141667Y36930048D01*
X-151190Y36939571D01*
X-160714Y36958619D01*
X-170238Y36996714D01*
X-170238Y37044333D01*
X-160714Y37082429D01*
X-151190Y37101476D01*
X-141667Y37111000D01*
X-122619Y37120524D01*
X29762Y36920524D02*
X29762Y37053857D01*
X29762Y37034810D02*
X39286Y37044333D01*
X58333Y37053857D01*
X86905Y37053857D01*
X105952Y37044333D01*
X115476Y37025286D01*
X115476Y36920524D01*
X115476Y37025286D02*
X125000Y37044333D01*
X144048Y37053857D01*
X172619Y37053857D01*
X191667Y37044333D01*
X201190Y37025286D01*
X201190Y36920524D01*
X296429Y36920524D02*
X296429Y37053857D01*
X296429Y37034810D02*
X305952Y37044333D01*
X325000Y37053857D01*
X353571Y37053857D01*
X372619Y37044333D01*
X382143Y37025286D01*
X382143Y36920524D01*
X382143Y37025286D02*
X391667Y37044333D01*
X410714Y37053857D01*
X439286Y37053857D01*
X458333Y37044333D01*
X467857Y37025286D01*
X467857Y36920524D01*
X858333Y37130048D02*
X686905Y36872905D01*
X1115476Y37120524D02*
X1134524Y37120524D01*
X1153571Y37111000D01*
X1163095Y37101476D01*
X1172619Y37082429D01*
X1182143Y37044333D01*
X1182143Y36996714D01*
X1172619Y36958619D01*
X1163095Y36939571D01*
X1153571Y36930048D01*
X1134524Y36920524D01*
X1115476Y36920524D01*
X1096429Y36930048D01*
X1086905Y36939571D01*
X1077381Y36958619D01*
X1067857Y36996714D01*
X1067857Y37044333D01*
X1077381Y37082429D01*
X1086905Y37101476D01*
X1096429Y37111000D01*
X1115476Y37120524D01*
X1267857Y36939571D02*
X1277381Y36930048D01*
X1267857Y36920524D01*
X1258333Y36930048D01*
X1267857Y36939571D01*
X1267857Y36920524D01*
X1401190Y37120524D02*
X1420238Y37120524D01*
X1439286Y37111000D01*
X1448809Y37101476D01*
X1458333Y37082429D01*
X1467857Y37044333D01*
X1467857Y36996714D01*
X1458333Y36958619D01*
X1448809Y36939571D01*
X1439286Y36930048D01*
X1420238Y36920524D01*
X1401190Y36920524D01*
X1382143Y36930048D01*
X1372619Y36939571D01*
X1363095Y36958619D01*
X1353571Y36996714D01*
X1353571Y37044333D01*
X1363095Y37082429D01*
X1372619Y37101476D01*
X1382143Y37111000D01*
X1401190Y37120524D01*
X1534524Y37120524D02*
X1658333Y37120524D01*
X1591667Y37044333D01*
X1620238Y37044333D01*
X1639286Y37034810D01*
X1648809Y37025286D01*
X1658333Y37006238D01*
X1658333Y36958619D01*
X1648809Y36939571D01*
X1639286Y36930048D01*
X1620238Y36920524D01*
X1563095Y36920524D01*
X1544048Y36930048D01*
X1534524Y36939571D01*
X1753571Y36920524D02*
X1791667Y36920524D01*
X1810714Y36930048D01*
X1820238Y36939571D01*
X1839286Y36968143D01*
X1848809Y37006238D01*
X1848809Y37082429D01*
X1839286Y37101476D01*
X1829762Y37111000D01*
X1810714Y37120524D01*
X1772619Y37120524D01*
X1753571Y37111000D01*
X1744048Y37101476D01*
X1734524Y37082429D01*
X1734524Y37034810D01*
X1744048Y37015762D01*
X1753571Y37006238D01*
X1772619Y36996714D01*
X1810714Y36996714D01*
X1829762Y37006238D01*
X1839286Y37015762D01*
X1848809Y37034810D01*
X2020238Y37053857D02*
X2020238Y36920524D01*
X1972619Y37130048D02*
X1925000Y36987190D01*
X2048809Y36987190D01*
X2115476Y37120524D02*
X2115476Y37082429D01*
X2191667Y37120524D02*
X2191667Y37082429D01*
X2486905Y36844333D02*
X2477381Y36853857D01*
X2458333Y36882429D01*
X2448810Y36901476D01*
X2439286Y36930048D01*
X2429762Y36977667D01*
X2429762Y37015762D01*
X2439286Y37063381D01*
X2448810Y37091952D01*
X2458333Y37111000D01*
X2477381Y37139571D01*
X2486905Y37149095D01*
X2667857Y36920524D02*
X2553571Y36920524D01*
X2610714Y36920524D02*
X2610714Y37120524D01*
X2591667Y37091952D01*
X2572619Y37072905D01*
X2553571Y37063381D01*
X2839286Y37120524D02*
X2801190Y37120524D01*
X2782143Y37111000D01*
X2772619Y37101476D01*
X2753571Y37072905D01*
X2744048Y37034810D01*
X2744048Y36958619D01*
X2753571Y36939571D01*
X2763095Y36930048D01*
X2782143Y36920524D01*
X2820238Y36920524D01*
X2839286Y36930048D01*
X2848809Y36939571D01*
X2858333Y36958619D01*
X2858333Y37006238D01*
X2848809Y37025286D01*
X2839286Y37034810D01*
X2820238Y37044333D01*
X2782143Y37044333D01*
X2763095Y37034810D01*
X2753571Y37025286D01*
X2744048Y37006238D01*
X3096428Y36920524D02*
X3096428Y37120524D01*
X3182143Y36920524D02*
X3182143Y37025286D01*
X3172619Y37044333D01*
X3153571Y37053857D01*
X3125000Y37053857D01*
X3105952Y37044333D01*
X3096428Y37034810D01*
X3305952Y36920524D02*
X3286905Y36930048D01*
X3277381Y36939571D01*
X3267857Y36958619D01*
X3267857Y37015762D01*
X3277381Y37034810D01*
X3286905Y37044333D01*
X3305952Y37053857D01*
X3334524Y37053857D01*
X3353571Y37044333D01*
X3363095Y37034810D01*
X3372619Y37015762D01*
X3372619Y36958619D01*
X3363095Y36939571D01*
X3353571Y36930048D01*
X3334524Y36920524D01*
X3305952Y36920524D01*
X3486905Y36920524D02*
X3467857Y36930048D01*
X3458333Y36949095D01*
X3458333Y37120524D01*
X3639286Y36930048D02*
X3620238Y36920524D01*
X3582143Y36920524D01*
X3563095Y36930048D01*
X3553571Y36949095D01*
X3553571Y37025286D01*
X3563095Y37044333D01*
X3582143Y37053857D01*
X3620238Y37053857D01*
X3639286Y37044333D01*
X3648809Y37025286D01*
X3648809Y37006238D01*
X3553571Y36987190D01*
X3725000Y36930048D02*
X3744048Y36920524D01*
X3782143Y36920524D01*
X3801190Y36930048D01*
X3810714Y36949095D01*
X3810714Y36958619D01*
X3801190Y36977667D01*
X3782143Y36987190D01*
X3753571Y36987190D01*
X3734524Y36996714D01*
X3725000Y37015762D01*
X3725000Y37025286D01*
X3734524Y37044333D01*
X3753571Y37053857D01*
X3782143Y37053857D01*
X3801190Y37044333D01*
X3877381Y36844333D02*
X3886905Y36853857D01*
X3905952Y36882429D01*
X3915476Y36901476D01*
X3925000Y36930048D01*
X3934524Y36977667D01*
X3934524Y37015762D01*
X3925000Y37063381D01*
X3915476Y37091952D01*
X3905952Y37111000D01*
X3886905Y37139571D01*
X3877381Y37149095D01*
D13*
X-1135800Y36797800D02*
X-1135800Y36696200D01*
X-1186600Y36747000D02*
X-1085000Y36747000D01*
D11*
X-722619Y36656524D02*
X-836905Y36656524D01*
X-779762Y36656524D02*
X-779762Y36856524D01*
X-798809Y36827952D01*
X-817857Y36808905D01*
X-836905Y36799381D01*
X-636905Y36675571D02*
X-627381Y36666048D01*
X-636905Y36656524D01*
X-646429Y36666048D01*
X-636905Y36675571D01*
X-636905Y36656524D01*
X-503571Y36856524D02*
X-484524Y36856524D01*
X-465476Y36847000D01*
X-455952Y36837476D01*
X-446428Y36818429D01*
X-436905Y36780333D01*
X-436905Y36732714D01*
X-446428Y36694619D01*
X-455952Y36675571D01*
X-465476Y36666048D01*
X-484524Y36656524D01*
X-503571Y36656524D01*
X-522619Y36666048D01*
X-532143Y36675571D01*
X-541667Y36694619D01*
X-551190Y36732714D01*
X-551190Y36780333D01*
X-541667Y36818429D01*
X-532143Y36837476D01*
X-522619Y36847000D01*
X-503571Y36856524D01*
X-246428Y36656524D02*
X-360714Y36656524D01*
X-303571Y36656524D02*
X-303571Y36856524D01*
X-322619Y36827952D01*
X-341667Y36808905D01*
X-360714Y36799381D01*
X-75000Y36856524D02*
X-113095Y36856524D01*
X-132143Y36847000D01*
X-141667Y36837476D01*
X-160714Y36808905D01*
X-170238Y36770810D01*
X-170238Y36694619D01*
X-160714Y36675571D01*
X-151190Y36666048D01*
X-132143Y36656524D01*
X-94048Y36656524D01*
X-75000Y36666048D01*
X-65476Y36675571D01*
X-55952Y36694619D01*
X-55952Y36742238D01*
X-65476Y36761286D01*
X-75000Y36770810D01*
X-94048Y36780333D01*
X-132143Y36780333D01*
X-151190Y36770810D01*
X-160714Y36761286D01*
X-170238Y36742238D01*
X29762Y36656524D02*
X29762Y36789857D01*
X29762Y36770810D02*
X39286Y36780333D01*
X58333Y36789857D01*
X86905Y36789857D01*
X105952Y36780333D01*
X115476Y36761286D01*
X115476Y36656524D01*
X115476Y36761286D02*
X125000Y36780333D01*
X144048Y36789857D01*
X172619Y36789857D01*
X191667Y36780333D01*
X201190Y36761286D01*
X201190Y36656524D01*
X296429Y36656524D02*
X296429Y36789857D01*
X296429Y36770810D02*
X305952Y36780333D01*
X325000Y36789857D01*
X353571Y36789857D01*
X372619Y36780333D01*
X382143Y36761286D01*
X382143Y36656524D01*
X382143Y36761286D02*
X391667Y36780333D01*
X410714Y36789857D01*
X439286Y36789857D01*
X458333Y36780333D01*
X467857Y36761286D01*
X467857Y36656524D01*
X858333Y36866048D02*
X686905Y36608905D01*
X1115476Y36856524D02*
X1134524Y36856524D01*
X1153571Y36847000D01*
X1163095Y36837476D01*
X1172619Y36818429D01*
X1182143Y36780333D01*
X1182143Y36732714D01*
X1172619Y36694619D01*
X1163095Y36675571D01*
X1153571Y36666048D01*
X1134524Y36656524D01*
X1115476Y36656524D01*
X1096429Y36666048D01*
X1086905Y36675571D01*
X1077381Y36694619D01*
X1067857Y36732714D01*
X1067857Y36780333D01*
X1077381Y36818429D01*
X1086905Y36837476D01*
X1096429Y36847000D01*
X1115476Y36856524D01*
X1267857Y36675571D02*
X1277381Y36666048D01*
X1267857Y36656524D01*
X1258333Y36666048D01*
X1267857Y36675571D01*
X1267857Y36656524D01*
X1401190Y36856524D02*
X1420238Y36856524D01*
X1439286Y36847000D01*
X1448809Y36837476D01*
X1458333Y36818429D01*
X1467857Y36780333D01*
X1467857Y36732714D01*
X1458333Y36694619D01*
X1448809Y36675571D01*
X1439286Y36666048D01*
X1420238Y36656524D01*
X1401190Y36656524D01*
X1382143Y36666048D01*
X1372619Y36675571D01*
X1363095Y36694619D01*
X1353571Y36732714D01*
X1353571Y36780333D01*
X1363095Y36818429D01*
X1372619Y36837476D01*
X1382143Y36847000D01*
X1401190Y36856524D01*
X1639286Y36789857D02*
X1639286Y36656524D01*
X1591667Y36866048D02*
X1544048Y36723190D01*
X1667857Y36723190D01*
X1782143Y36856524D02*
X1801190Y36856524D01*
X1820238Y36847000D01*
X1829762Y36837476D01*
X1839286Y36818429D01*
X1848809Y36780333D01*
X1848809Y36732714D01*
X1839286Y36694619D01*
X1829762Y36675571D01*
X1820238Y36666048D01*
X1801190Y36656524D01*
X1782143Y36656524D01*
X1763095Y36666048D01*
X1753571Y36675571D01*
X1744048Y36694619D01*
X1734524Y36732714D01*
X1734524Y36780333D01*
X1744048Y36818429D01*
X1753571Y36837476D01*
X1763095Y36847000D01*
X1782143Y36856524D01*
X1972619Y36856524D02*
X1991667Y36856524D01*
X2010714Y36847000D01*
X2020238Y36837476D01*
X2029762Y36818429D01*
X2039286Y36780333D01*
X2039286Y36732714D01*
X2029762Y36694619D01*
X2020238Y36675571D01*
X2010714Y36666048D01*
X1991667Y36656524D01*
X1972619Y36656524D01*
X1953571Y36666048D01*
X1944048Y36675571D01*
X1934524Y36694619D01*
X1925000Y36732714D01*
X1925000Y36780333D01*
X1934524Y36818429D01*
X1944048Y36837476D01*
X1953571Y36847000D01*
X1972619Y36856524D01*
X2115476Y36856524D02*
X2115476Y36818429D01*
X2191667Y36856524D02*
X2191667Y36818429D01*
X2486905Y36580333D02*
X2477381Y36589857D01*
X2458333Y36618429D01*
X2448810Y36637476D01*
X2439286Y36666048D01*
X2429762Y36713667D01*
X2429762Y36751762D01*
X2439286Y36799381D01*
X2448810Y36827952D01*
X2458333Y36847000D01*
X2477381Y36875571D01*
X2486905Y36885095D01*
X2667857Y36656524D02*
X2553571Y36656524D01*
X2610714Y36656524D02*
X2610714Y36856524D01*
X2591667Y36827952D01*
X2572619Y36808905D01*
X2553571Y36799381D01*
X2791667Y36856524D02*
X2810714Y36856524D01*
X2829762Y36847000D01*
X2839286Y36837476D01*
X2848809Y36818429D01*
X2858333Y36780333D01*
X2858333Y36732714D01*
X2848809Y36694619D01*
X2839286Y36675571D01*
X2829762Y36666048D01*
X2810714Y36656524D01*
X2791667Y36656524D01*
X2772619Y36666048D01*
X2763095Y36675571D01*
X2753571Y36694619D01*
X2744048Y36732714D01*
X2744048Y36780333D01*
X2753571Y36818429D01*
X2763095Y36837476D01*
X2772619Y36847000D01*
X2791667Y36856524D01*
X3096428Y36656524D02*
X3096428Y36856524D01*
X3182143Y36656524D02*
X3182143Y36761286D01*
X3172619Y36780333D01*
X3153571Y36789857D01*
X3125000Y36789857D01*
X3105952Y36780333D01*
X3096428Y36770810D01*
X3305952Y36656524D02*
X3286905Y36666048D01*
X3277381Y36675571D01*
X3267857Y36694619D01*
X3267857Y36751762D01*
X3277381Y36770810D01*
X3286905Y36780333D01*
X3305952Y36789857D01*
X3334524Y36789857D01*
X3353571Y36780333D01*
X3363095Y36770810D01*
X3372619Y36751762D01*
X3372619Y36694619D01*
X3363095Y36675571D01*
X3353571Y36666048D01*
X3334524Y36656524D01*
X3305952Y36656524D01*
X3486905Y36656524D02*
X3467857Y36666048D01*
X3458333Y36685095D01*
X3458333Y36856524D01*
X3639286Y36666048D02*
X3620238Y36656524D01*
X3582143Y36656524D01*
X3563095Y36666048D01*
X3553571Y36685095D01*
X3553571Y36761286D01*
X3563095Y36780333D01*
X3582143Y36789857D01*
X3620238Y36789857D01*
X3639286Y36780333D01*
X3648809Y36761286D01*
X3648809Y36742238D01*
X3553571Y36723190D01*
X3725000Y36666048D02*
X3744048Y36656524D01*
X3782143Y36656524D01*
X3801190Y36666048D01*
X3810714Y36685095D01*
X3810714Y36694619D01*
X3801190Y36713667D01*
X3782143Y36723190D01*
X3753571Y36723190D01*
X3734524Y36732714D01*
X3725000Y36751762D01*
X3725000Y36761286D01*
X3734524Y36780333D01*
X3753571Y36789857D01*
X3782143Y36789857D01*
X3801190Y36780333D01*
X3877381Y36580333D02*
X3886905Y36589857D01*
X3905952Y36618429D01*
X3915476Y36637476D01*
X3925000Y36666048D01*
X3934524Y36713667D01*
X3934524Y36751762D01*
X3925000Y36799381D01*
X3915476Y36827952D01*
X3905952Y36847000D01*
X3886905Y36875571D01*
X3877381Y36885095D01*
D14*
X-1102573Y36440573D02*
X-1102573Y36525427D01*
X-1187427Y36525427D01*
X-1187427Y36440573D01*
X-1102573Y36440573D01*
D11*
X-722619Y36392524D02*
X-836905Y36392524D01*
X-779762Y36392524D02*
X-779762Y36592524D01*
X-798809Y36563952D01*
X-817857Y36544905D01*
X-836905Y36535381D01*
X-636905Y36411571D02*
X-627381Y36402048D01*
X-636905Y36392524D01*
X-646429Y36402048D01*
X-636905Y36411571D01*
X-636905Y36392524D01*
X-551190Y36573476D02*
X-541667Y36583000D01*
X-522619Y36592524D01*
X-475000Y36592524D01*
X-455952Y36583000D01*
X-446428Y36573476D01*
X-436905Y36554429D01*
X-436905Y36535381D01*
X-446428Y36506810D01*
X-560714Y36392524D01*
X-436905Y36392524D01*
X-313095Y36592524D02*
X-294048Y36592524D01*
X-275000Y36583000D01*
X-265476Y36573476D01*
X-255952Y36554429D01*
X-246428Y36516333D01*
X-246428Y36468714D01*
X-255952Y36430619D01*
X-265476Y36411571D01*
X-275000Y36402048D01*
X-294048Y36392524D01*
X-313095Y36392524D01*
X-332143Y36402048D01*
X-341667Y36411571D01*
X-351190Y36430619D01*
X-360714Y36468714D01*
X-360714Y36516333D01*
X-351190Y36554429D01*
X-341667Y36573476D01*
X-332143Y36583000D01*
X-313095Y36592524D01*
X-122619Y36592524D02*
X-103571Y36592524D01*
X-84524Y36583000D01*
X-75000Y36573476D01*
X-65476Y36554429D01*
X-55952Y36516333D01*
X-55952Y36468714D01*
X-65476Y36430619D01*
X-75000Y36411571D01*
X-84524Y36402048D01*
X-103571Y36392524D01*
X-122619Y36392524D01*
X-141667Y36402048D01*
X-151190Y36411571D01*
X-160714Y36430619D01*
X-170238Y36468714D01*
X-170238Y36516333D01*
X-160714Y36554429D01*
X-151190Y36573476D01*
X-141667Y36583000D01*
X-122619Y36592524D01*
X29762Y36392524D02*
X29762Y36525857D01*
X29762Y36506810D02*
X39286Y36516333D01*
X58333Y36525857D01*
X86905Y36525857D01*
X105952Y36516333D01*
X115476Y36497286D01*
X115476Y36392524D01*
X115476Y36497286D02*
X125000Y36516333D01*
X144048Y36525857D01*
X172619Y36525857D01*
X191667Y36516333D01*
X201190Y36497286D01*
X201190Y36392524D01*
X296429Y36392524D02*
X296429Y36525857D01*
X296429Y36506810D02*
X305952Y36516333D01*
X325000Y36525857D01*
X353571Y36525857D01*
X372619Y36516333D01*
X382143Y36497286D01*
X382143Y36392524D01*
X382143Y36497286D02*
X391667Y36516333D01*
X410714Y36525857D01*
X439286Y36525857D01*
X458333Y36516333D01*
X467857Y36497286D01*
X467857Y36392524D01*
X858333Y36602048D02*
X686905Y36344905D01*
X1115476Y36592524D02*
X1134524Y36592524D01*
X1153571Y36583000D01*
X1163095Y36573476D01*
X1172619Y36554429D01*
X1182143Y36516333D01*
X1182143Y36468714D01*
X1172619Y36430619D01*
X1163095Y36411571D01*
X1153571Y36402048D01*
X1134524Y36392524D01*
X1115476Y36392524D01*
X1096429Y36402048D01*
X1086905Y36411571D01*
X1077381Y36430619D01*
X1067857Y36468714D01*
X1067857Y36516333D01*
X1077381Y36554429D01*
X1086905Y36573476D01*
X1096429Y36583000D01*
X1115476Y36592524D01*
X1267857Y36411571D02*
X1277381Y36402048D01*
X1267857Y36392524D01*
X1258333Y36402048D01*
X1267857Y36411571D01*
X1267857Y36392524D01*
X1401190Y36592524D02*
X1420238Y36592524D01*
X1439286Y36583000D01*
X1448809Y36573476D01*
X1458333Y36554429D01*
X1467857Y36516333D01*
X1467857Y36468714D01*
X1458333Y36430619D01*
X1448809Y36411571D01*
X1439286Y36402048D01*
X1420238Y36392524D01*
X1401190Y36392524D01*
X1382143Y36402048D01*
X1372619Y36411571D01*
X1363095Y36430619D01*
X1353571Y36468714D01*
X1353571Y36516333D01*
X1363095Y36554429D01*
X1372619Y36573476D01*
X1382143Y36583000D01*
X1401190Y36592524D01*
X1639286Y36525857D02*
X1639286Y36392524D01*
X1591667Y36602048D02*
X1544048Y36459190D01*
X1667857Y36459190D01*
X1725000Y36592524D02*
X1858333Y36592524D01*
X1772619Y36392524D01*
X1925000Y36573476D02*
X1934524Y36583000D01*
X1953571Y36592524D01*
X2001190Y36592524D01*
X2020238Y36583000D01*
X2029762Y36573476D01*
X2039286Y36554429D01*
X2039286Y36535381D01*
X2029762Y36506810D01*
X1915476Y36392524D01*
X2039286Y36392524D01*
X2115476Y36592524D02*
X2115476Y36554429D01*
X2191667Y36592524D02*
X2191667Y36554429D01*
X2486905Y36316333D02*
X2477381Y36325857D01*
X2458333Y36354429D01*
X2448810Y36373476D01*
X2439286Y36402048D01*
X2429762Y36449667D01*
X2429762Y36487762D01*
X2439286Y36535381D01*
X2448810Y36563952D01*
X2458333Y36583000D01*
X2477381Y36611571D01*
X2486905Y36621095D01*
X2648810Y36525857D02*
X2648810Y36392524D01*
X2601190Y36602048D02*
X2553571Y36459190D01*
X2677381Y36459190D01*
X2782143Y36506810D02*
X2763095Y36516333D01*
X2753571Y36525857D01*
X2744048Y36544905D01*
X2744048Y36554429D01*
X2753571Y36573476D01*
X2763095Y36583000D01*
X2782143Y36592524D01*
X2820238Y36592524D01*
X2839286Y36583000D01*
X2848809Y36573476D01*
X2858333Y36554429D01*
X2858333Y36544905D01*
X2848809Y36525857D01*
X2839286Y36516333D01*
X2820238Y36506810D01*
X2782143Y36506810D01*
X2763095Y36497286D01*
X2753571Y36487762D01*
X2744048Y36468714D01*
X2744048Y36430619D01*
X2753571Y36411571D01*
X2763095Y36402048D01*
X2782143Y36392524D01*
X2820238Y36392524D01*
X2839286Y36402048D01*
X2848809Y36411571D01*
X2858333Y36430619D01*
X2858333Y36468714D01*
X2848809Y36487762D01*
X2839286Y36497286D01*
X2820238Y36506810D01*
X3096428Y36392524D02*
X3096428Y36592524D01*
X3182143Y36392524D02*
X3182143Y36497286D01*
X3172619Y36516333D01*
X3153571Y36525857D01*
X3125000Y36525857D01*
X3105952Y36516333D01*
X3096428Y36506810D01*
X3305952Y36392524D02*
X3286905Y36402048D01*
X3277381Y36411571D01*
X3267857Y36430619D01*
X3267857Y36487762D01*
X3277381Y36506810D01*
X3286905Y36516333D01*
X3305952Y36525857D01*
X3334524Y36525857D01*
X3353571Y36516333D01*
X3363095Y36506810D01*
X3372619Y36487762D01*
X3372619Y36430619D01*
X3363095Y36411571D01*
X3353571Y36402048D01*
X3334524Y36392524D01*
X3305952Y36392524D01*
X3486905Y36392524D02*
X3467857Y36402048D01*
X3458333Y36421095D01*
X3458333Y36592524D01*
X3639286Y36402048D02*
X3620238Y36392524D01*
X3582143Y36392524D01*
X3563095Y36402048D01*
X3553571Y36421095D01*
X3553571Y36497286D01*
X3563095Y36516333D01*
X3582143Y36525857D01*
X3620238Y36525857D01*
X3639286Y36516333D01*
X3648809Y36497286D01*
X3648809Y36478238D01*
X3553571Y36459190D01*
X3725000Y36402048D02*
X3744048Y36392524D01*
X3782143Y36392524D01*
X3801190Y36402048D01*
X3810714Y36421095D01*
X3810714Y36430619D01*
X3801190Y36449667D01*
X3782143Y36459190D01*
X3753571Y36459190D01*
X3734524Y36468714D01*
X3725000Y36487762D01*
X3725000Y36497286D01*
X3734524Y36516333D01*
X3753571Y36525857D01*
X3782143Y36525857D01*
X3801190Y36516333D01*
X3877381Y36316333D02*
X3886905Y36325857D01*
X3905952Y36354429D01*
X3915476Y36373476D01*
X3925000Y36402048D01*
X3934524Y36449667D01*
X3934524Y36487762D01*
X3925000Y36535381D01*
X3915476Y36563952D01*
X3905952Y36583000D01*
X3886905Y36611571D01*
X3877381Y36621095D01*
M02*
