M48
; DRILL file {KiCad (6.0.7-1)-1} date Monday, October 31, 2022 at 10:34:22 PM
; FORMAT={-:-/ absolute / inch / decimal}
; #@! TF.CreationDate,2022-10-31T22:34:22+08:00
; #@! TF.GenerationSoftware,Kicad,Pcbnew,(6.0.7-1)-1
; #@! TF.FileFunction,NonPlated,1,2,NPTH
FMAT,2
INCH
; #@! TA.AperFunction,NonPlated,NPTH,ComponentDrill
T1C0.0669
; #@! TA.AperFunction,NonPlated,NPTH,ComponentDrill
T2C0.1339
%
G90
G05
T1
X-0.2756Y17.0866
X-0.2756Y16.3976
X0.1575Y17.0866
X0.1575Y16.3976
X0.4528Y17.815
X0.4528Y17.126
X0.4528Y16.437
X0.8858Y17.815
X0.8858Y17.126
X0.8858Y16.437
X1.1811Y17.8937
X1.1811Y17.2047
X1.1811Y16.5157
X1.6142Y17.8937
X1.6142Y17.2047
X1.6142Y16.5157
X1.9094Y17.7756
X1.9094Y17.0866
X1.9094Y16.3976
X2.0899Y15.6203
X2.3425Y17.7756
X2.3425Y17.0866
X2.3425Y16.3976
X2.5164Y15.5451
X2.6378Y17.6969
X2.6378Y17.0079
X2.6378Y16.3189
X2.8492Y15.4492
X3.0709Y17.6969
X3.0709Y17.0079
X3.0709Y16.3189
X3.2562Y15.3011
T2
X-0.0591Y17.0866
X-0.0591Y16.3976
X0.6693Y17.815
X0.6693Y17.126
X0.6693Y16.437
X1.3976Y17.8937
X1.3976Y17.2047
X1.3976Y16.5157
X2.126Y17.7756
X2.126Y17.0866
X2.126Y16.3976
X2.3031Y15.5827
X2.8543Y17.6969
X2.8543Y17.0079
X2.8543Y16.3189
X3.0527Y15.3751
T0
M30
